<svg width="21" height="20" viewBox="0 0 21 20" fill="none" xmlns="http://www.w3.org/2000/svg">
<path d="M14.0624 11.7669L11.2738 9.67547V5.41523C11.2738 4.98687 10.9276 4.64062 10.4992 4.64062C10.0709 4.64062 9.72461 4.98687 9.72461 5.41523V10.0628C9.72461 10.3068 9.83926 10.5369 10.0345 10.6825L13.1328 13.0063C13.2722 13.1109 13.4349 13.1612 13.5968 13.1612C13.833 13.1612 14.0654 13.0551 14.2173 12.8506C14.4745 12.5089 14.4048 12.0233 14.0624 11.7669Z" fill="#181818"/>
<path d="M10.5 0C4.98566 0 0.5 4.48566 0.5 10C0.5 15.5143 4.98566 20 10.5 20C16.0143 20 20.5 15.5143 20.5 10C20.5 4.48566 16.0143 0 10.5 0ZM10.5 18.4508C5.84082 18.4508 2.04918 14.6592 2.04918 10C2.04918 5.34082 5.84082 1.54918 10.5 1.54918C15.16 1.54918 18.9508 5.34082 18.9508 10C18.9508 14.6592 15.1592 18.4508 10.5 18.4508Z" fill="#181818"/>
</svg>
