<svg width="24" height="24" viewBox="0 0 24 24" fill="none" xmlns="http://www.w3.org/2000/svg">
<path d="M20.6008 11.7998C20.6008 16.6599 16.6609 20.5998 11.8008 20.5998M20.6008 11.7998C20.6008 6.93971 16.6609 2.99982 11.8008 2.99982M20.6008 11.7998L22.8008 11.7998M11.8008 20.5998C6.94067 20.5998 3.00078 16.6599 3.00078 11.7998M11.8008 20.5998L11.8008 22.7998M3.00078 11.7998C3.00078 6.93971 6.94067 2.99982 11.8008 2.99982M3.00078 11.7998L0.800781 11.7998M11.8008 2.99982L11.8008 0.799805M15.1008 11.7998C15.1008 13.6224 13.6234 15.0998 11.8008 15.0998C9.97819 15.0998 8.50078 13.6224 8.50078 11.7998C8.50078 9.97722 9.97819 8.49981 11.8008 8.49981C13.6234 8.49981 15.1008 9.97722 15.1008 11.7998Z" stroke="#37A755" stroke-width="1.6" stroke-linecap="round"/>
</svg>
