<svg width="47" height="16" viewBox="0 0 47 16" fill="none" xmlns="http://www.w3.org/2000/svg">
<path fill-rule="evenodd" clip-rule="evenodd" d="M11.7505 15.3832H7.68296L4.63276 3.74655C4.48802 3.21132 4.1806 2.73806 3.72844 2.51505C2.59996 1.9546 1.35648 1.50848 0 1.28356V0.835521H6.55247C7.45689 0.835521 8.13512 1.50848 8.24812 2.29012L9.83077 10.6839L13.8964 0.835521H17.8508L11.7505 15.3832ZM20.1117 15.3832H16.2702L19.4334 0.835521H23.2749L20.1117 15.3832ZM28.2448 4.86562C28.3579 4.08216 29.0361 3.63413 29.8274 3.63413C31.0709 3.52162 32.4254 3.74664 33.5559 4.30517L34.2341 1.17296C33.1036 0.724927 31.8602 0.5 30.7318 0.5C27.0033 0.5 24.2903 2.51505 24.2903 5.31174C24.2903 7.4393 26.212 8.55637 27.5686 9.22933C29.0361 9.90037 29.6014 10.3484 29.4883 11.0195C29.4883 12.026 28.3579 12.4741 27.2294 12.4741C25.8729 12.4741 24.5163 12.1385 23.2749 11.578L22.5966 14.7121C23.9531 15.2706 25.4208 15.4957 26.7772 15.4957C30.9578 15.6062 33.5559 13.593 33.5559 10.5714C33.5559 6.76624 28.2448 6.54323 28.2448 4.86562ZM47 15.3832L43.9498 0.835521H40.6736C39.9953 0.835521 39.317 1.28356 39.091 1.9546L33.4428 15.3832H37.3973L38.1866 13.2575H43.0455L43.4976 15.3832H47ZM41.2388 4.75321L42.3672 10.2359H39.204L41.2388 4.75321Z" fill="#172B85"/>
</svg>
