<svg width="20" height="21" viewBox="0 0 20 21" fill="none" xmlns="http://www.w3.org/2000/svg">
<path d="M17.7059 10.5247C17.7071 11.5368 17.5087 12.5392 17.1219 13.4744C16.7351 14.4096 16.1675 15.2593 15.4517 15.9747C14.7355 16.6911 13.8852 17.2592 12.9494 17.6467C12.0135 18.0342 11.0104 18.2335 9.99752 18.2331C8.90735 18.2355 7.8292 18.0054 6.83502 17.5581L3.61252 18.0347C3.45252 18.0609 3.28856 18.0475 3.13488 17.9959C2.9812 17.9443 2.84246 17.8559 2.73069 17.7385C2.61892 17.621 2.53752 17.4781 2.49354 17.322C2.44956 17.166 2.44435 17.0016 2.47835 16.8431L2.92585 13.5739C2.50018 12.614 2.28317 11.5747 2.28918 10.5247C2.28789 9.51268 2.48634 8.51032 2.87315 7.5751C3.25997 6.63988 3.82754 5.7902 4.54335 5.07474C5.25951 4.35842 6.10982 3.79027 7.04568 3.40277C7.98155 3.01527 8.9846 2.81602 9.99752 2.81641C12.043 2.81654 14.0048 3.62883 15.4517 5.07474C16.1671 5.79047 16.7345 6.64021 17.1212 7.57537C17.508 8.51052 17.7067 9.51275 17.7059 10.5247Z" stroke="white" stroke-width="1.5" stroke-linecap="round" stroke-linejoin="round"/>
</svg>
