<svg width="20" height="20" viewBox="0 0 20 20" fill="none" xmlns="http://www.w3.org/2000/svg">
<path d="M8.73145 0.787109C9.53362 0.403771 10.4664 0.403772 11.2686 0.787109C11.6299 0.959827 11.9638 1.24974 12.4912 1.69922V1.7002C12.7183 1.89379 12.8032 1.96481 12.8906 2.02344C13.1039 2.16638 13.3438 2.26566 13.5957 2.31543C13.6991 2.33584 13.8094 2.34536 14.1074 2.36914C14.7984 2.42429 15.2395 2.45546 15.6172 2.58887C16.4556 2.88499 17.115 3.54443 17.4111 4.38281C17.5444 4.76042 17.5757 5.20158 17.6309 5.89258C17.6546 6.19043 17.6642 6.30086 17.6846 6.4043C17.7343 6.65615 17.8336 6.89607 17.9766 7.10938L18.0879 7.25684C18.1372 7.31731 18.2039 7.39513 18.3008 7.50879C18.7503 8.03626 19.0402 8.37007 19.2129 8.73145C19.5962 9.53363 19.5962 10.4664 19.2129 11.2686C19.0402 11.6299 18.7493 11.9628 18.2998 12.4902C18.1059 12.7178 18.0351 12.8032 17.9766 12.8906C17.8336 13.1039 17.7343 13.3438 17.6846 13.5957C17.6642 13.6992 17.6546 13.8096 17.6309 14.1074C17.5826 14.7117 17.5529 15.125 17.457 15.4717L17.4111 15.6172C17.1335 16.4031 16.5367 17.032 15.7725 17.3516L15.6172 17.4111C15.2396 17.5444 14.7984 17.5757 14.1074 17.6309C13.8096 17.6546 13.6992 17.6642 13.5957 17.6846C13.3438 17.7343 13.1039 17.8336 12.8906 17.9766C12.8032 18.0351 12.7188 18.1069 12.4912 18.3008C11.9637 18.7503 11.6299 19.0402 11.2686 19.2129C10.4664 19.5962 9.53363 19.5962 8.73145 19.2129C8.37002 19.0401 8.03639 18.7495 7.50879 18.2998C7.3953 18.2031 7.31725 18.1371 7.25684 18.0879L7.10938 17.9766C6.89607 17.8336 6.65615 17.7343 6.4043 17.6846C6.30086 17.6642 6.19043 17.6546 5.89258 17.6309C5.20158 17.5757 4.76042 17.5444 4.38281 17.4111C3.54443 17.115 2.88499 16.4556 2.58887 15.6172C2.45546 15.2395 2.42429 14.7984 2.36914 14.1074C2.34536 13.8094 2.33584 13.6991 2.31543 13.5957C2.26566 13.3438 2.16638 13.1039 2.02344 12.8906C1.96479 12.8032 1.893 12.7186 1.69922 12.4912C1.24974 11.9638 0.959827 11.6299 0.787109 11.2686C0.403772 10.4664 0.403771 9.53362 0.787109 8.73145C0.95982 8.37005 1.24974 8.03624 1.69922 7.50879C1.89308 7.28131 1.96481 7.19681 2.02344 7.10938C2.16638 6.8961 2.26566 6.65618 2.31543 6.4043C2.33584 6.30095 2.34536 6.19065 2.36914 5.89258C2.42429 5.20163 2.45546 4.7605 2.58887 4.38281L2.64844 4.22754C2.96797 3.46326 3.59688 2.86647 4.38281 2.58887L4.52734 2.54297C4.87425 2.44684 5.28783 2.41741 5.89258 2.36914C6.19065 2.34536 6.30095 2.33584 6.4043 2.31543C6.65618 2.26566 6.8961 2.16638 7.10938 2.02344C7.19681 1.96481 7.28131 1.89307 7.50879 1.69922C8.03624 1.24974 8.37005 0.95982 8.73145 0.787109ZM13.583 7.39453C13.4923 7.30377 13.3447 7.30379 13.2539 7.39453L8.53516 12.1133L6.74609 10.3242C6.65529 10.2336 6.50773 10.2335 6.41699 10.3242C6.32641 10.4149 6.32633 10.5625 6.41699 10.6533L8.37109 12.6064C8.46181 12.6969 8.60839 12.6971 8.69922 12.6064L13.583 7.72363C13.6737 7.63291 13.6735 7.48533 13.583 7.39453Z" fill="#2E3644" stroke="white"/>
</svg>
