<svg width="18" height="19" viewBox="0 0 18 19" fill="none" xmlns="http://www.w3.org/2000/svg">
<path opacity="0.5" d="M15.9448 17.0261C17.2287 16.326 18 15.4285 18 14.4499C18 13.4127 17.1335 12.4664 15.7083 11.7499C14.0603 10.9214 11.6655 10.3999 9 10.3999C6.3345 10.3999 3.93964 10.9214 2.29168 11.7499C0.866565 12.4664 0 13.4127 0 14.4499C0 15.4872 0.866565 16.4334 2.29168 17.1499C3.93964 17.9784 6.3345 18.4999 9 18.4999C11.7959 18.4999 14.2941 17.9262 15.9448 17.0261Z" fill="#37A755"/>
<path fill-rule="evenodd" clip-rule="evenodd" d="M2.70312 6.36318C2.70312 3.12503 5.52373 0.5 9.00313 0.5C12.4825 0.5 15.3031 3.12503 15.3031 6.36318C15.3031 9.57596 13.2923 13.3249 10.1552 14.6656C9.42388 14.9781 8.58238 14.9781 7.85104 14.6656C4.71387 13.3249 2.70312 9.57596 2.70312 6.36318ZM9.00313 8.6C9.99727 8.6 10.8031 7.79414 10.8031 6.8C10.8031 5.80589 9.99727 5 9.00313 5C8.00899 5 7.20312 5.80589 7.20312 6.8C7.20312 7.79414 8.00899 8.6 9.00313 8.6Z" fill="#37A755"/>
</svg>
