<svg width="25" height="25" viewBox="0 0 25 25" fill="none" xmlns="http://www.w3.org/2000/svg">
<path fill-rule="evenodd" clip-rule="evenodd" d="M15.5 4.35714C15.5 3.88376 15.8837 3.5 16.3571 3.5H19.7857C20.7325 3.5 21.5 4.26751 21.5 5.21429V8.64286C21.5 9.11625 21.1163 9.5 20.6429 9.5C20.1695 9.5 19.7857 9.11624 19.7857 8.64286V6.42533L15.9004 10.3107C15.8575 10.3536 15.8111 10.3909 15.7624 10.4229C16.6721 11.5865 17.2143 13.0513 17.2143 14.6429C17.2143 18.43 14.1443 21.5 10.3571 21.5C6.57005 21.5 3.5 18.43 3.5 14.6429C3.5 10.8557 6.57005 7.78571 10.3571 7.78571C11.9479 7.78571 13.4122 8.3274 14.5755 9.23639C14.6075 9.18748 14.6449 9.1411 14.6879 9.09815L18.5717 5.21429H16.3571C15.8837 5.21429 15.5 4.83053 15.5 4.35714ZM10.3571 19.7825C7.51855 19.7825 5.21741 17.4815 5.21741 14.6429C5.21741 11.8043 7.51855 9.50313 10.3571 9.50313C13.1957 9.50313 15.4968 11.8043 15.4968 14.6429C15.4968 17.4815 13.1957 19.7825 10.3571 19.7825Z" fill="black"/>
</svg>
