<svg width="15" height="16" viewBox="0 0 15 16" fill="none" xmlns="http://www.w3.org/2000/svg">
<path d="M13.6562 3.64583C14.0187 3.64583 14.3125 3.35202 14.3125 2.98958C14.3125 2.62715 14.0187 2.33333 13.6562 2.33333V2.98958V3.64583ZM0.65625 2.33333C0.293813 2.33333 0 2.62715 0 2.98958C0 3.35202 0.293813 3.64583 0.65625 3.64583V2.98958V2.33333ZM13.0364 4.97696C13.0601 4.6153 12.7862 4.30289 12.4245 4.27918C12.0628 4.25548 11.7504 4.52944 11.7267 4.8911L12.3816 4.93403L13.0364 4.97696ZM12.0298 10.3L11.375 10.2571V10.2571L12.0298 10.3ZM11.1653 14.0268L10.7129 13.5514L10.7129 13.5514L11.1653 14.0268ZM3.14684 14.0268L3.59923 13.5514L3.5992 13.5514L3.14684 14.0268ZM2.28234 10.3L1.6275 10.3429L1.6275 10.3429L2.28234 10.3ZM2.58547 4.89111C2.56176 4.52944 2.24936 4.25548 1.8877 4.27918C1.52604 4.30289 1.25207 4.61529 1.27578 4.97695L1.93062 4.93403L2.58547 4.89111ZM5.89756 6.81426C5.8621 6.45356 5.54094 6.18991 5.18025 6.22537C4.81955 6.26083 4.55589 6.58199 4.59136 6.94268L5.24446 6.87847L5.89756 6.81426ZM4.97371 10.8316C5.00917 11.1923 5.33032 11.4559 5.69102 11.4205C6.05172 11.385 6.31537 11.0638 6.27991 10.7031L5.62681 10.7674L4.97371 10.8316ZM9.72107 6.94268C9.75653 6.58199 9.49288 6.26083 9.13218 6.22537C8.77148 6.18991 8.45033 6.45356 8.41487 6.81426L9.06797 6.87847L9.72107 6.94268ZM8.03251 10.7031C7.99705 11.0638 8.26071 11.385 8.6214 11.4205C8.9821 11.4559 9.30325 11.1923 9.33872 10.8316L8.68562 10.7674L8.03251 10.7031ZM3.03382 2.98909L3.05068 3.64512L3.05073 3.64512L3.03382 2.98909ZM4.43328 1.96317L5.05159 2.18307L5.05159 2.18307L4.43328 1.96317ZM4.46014 1.88278L3.83652 1.6784L3.83651 1.67844L4.46014 1.88278ZM4.53438 1.65625L3.91077 1.45186L3.91077 1.45186L4.53438 1.65625ZM4.67147 1.28407L4.08733 0.985L4.08731 0.985041L4.67147 1.28407ZM5.50798 0.670849L5.61319 1.31861L5.61321 1.31861L5.50798 0.670849ZM8.80445 0.670849L8.6992 1.3186L8.69925 1.31861L8.80445 0.670849ZM9.64096 1.28407L9.05682 1.58314L9.05688 1.58328L9.64096 1.28407ZM9.77807 1.65625L10.4017 1.45185L10.4017 1.45182L9.77807 1.65625ZM9.85232 1.88278L10.4761 1.67893L10.4759 1.67838L9.85232 1.88278ZM9.87916 1.96317L9.26075 2.18278L9.26085 2.18307L9.87916 1.96317ZM11.2786 2.98909L11.2617 3.64512L11.2618 3.64512L11.2786 2.98909ZM13.6562 2.98958V2.33333H0.65625V2.98958V3.64583H13.6562V2.98958ZM12.3816 4.93403L11.7267 4.8911L11.375 10.2571L12.0298 10.3L12.6847 10.3429L13.0364 4.97696L12.3816 4.93403ZM12.0298 10.3L11.375 10.2571C11.3061 11.3071 11.2574 12.0317 11.1508 12.5756C11.0477 13.102 10.9061 13.3676 10.7129 13.5514L11.1653 14.0268L11.6177 14.5022C12.086 14.0567 12.3089 13.4913 12.4389 12.8279C12.5654 12.1819 12.6181 11.3578 12.6847 10.3429L12.0298 10.3ZM11.1653 14.0268L10.7129 13.5514C10.5211 13.7339 10.2552 13.8581 9.73696 13.9271C9.1989 13.9986 8.48731 14 7.45177 14V14.6563V15.3125C8.45094 15.3125 9.26539 15.3139 9.91006 15.2281C10.5745 15.1397 11.148 14.9491 11.6177 14.5022L11.1653 14.0268ZM7.45177 14.6563V14H6.86043V14.6563V15.3125H7.45177V14.6563ZM6.86043 14.6563V14C5.82486 14 5.11326 13.9986 4.5752 13.9271C4.05691 13.8581 3.79103 13.7339 3.59923 13.5514L3.14684 14.0268L2.69445 14.5022C3.16412 14.9491 3.73765 15.1397 4.4021 15.2281C5.04677 15.3139 5.86123 15.3125 6.86043 15.3125V14.6563ZM3.14684 14.0268L3.5992 13.5514C3.40602 13.3676 3.26441 13.102 3.16131 12.5756C3.05479 12.0317 3.00601 11.3071 2.93719 10.2571L2.28234 10.3L1.6275 10.3429C1.69402 11.3578 1.74676 12.1819 1.87328 12.8279C2.00323 13.4913 2.22618 14.0567 2.69447 14.5022L3.14684 14.0268ZM2.28234 10.3L2.93719 10.2571L2.58547 4.89111L1.93062 4.93403L1.27578 4.97695L1.6275 10.3429L2.28234 10.3ZM5.24446 6.87847L4.59136 6.94268L4.97371 10.8316L5.62681 10.7674L6.27991 10.7031L5.89756 6.81426L5.24446 6.87847ZM9.06797 6.87847L8.41487 6.81426L8.03251 10.7031L8.68562 10.7674L9.33872 10.8316L9.72107 6.94268L9.06797 6.87847ZM2.95035 2.98958V3.64583C2.98938 3.64583 3.02084 3.64589 3.05068 3.64512L3.03382 2.98909L3.01696 2.33305C3.00806 2.33328 2.99679 2.33333 2.95035 2.33333V2.98958ZM3.03382 2.98909L3.05073 3.64512C3.95724 3.62175 4.74819 3.03613 5.05159 2.18307L4.43328 1.96317L3.81497 1.74326C3.68983 2.09512 3.36977 2.32396 3.01691 2.33305L3.03382 2.98909ZM4.43328 1.96317L5.05159 2.18307C5.06161 2.1549 5.07138 2.1249 5.08376 2.08712L4.46014 1.88278L3.83651 1.67844C3.82186 1.72314 3.81814 1.73436 3.81497 1.74326L4.43328 1.96317ZM4.46014 1.88278L5.08375 2.08716L5.15799 1.86063L4.53438 1.65625L3.91077 1.45186L3.83652 1.6784L4.46014 1.88278ZM4.53438 1.65625L5.15799 1.86063C5.22845 1.64565 5.24273 1.60832 5.25564 1.5831L4.67147 1.28407L4.08731 0.985041C4.01617 1.12402 3.96707 1.28009 3.91077 1.45186L4.53438 1.65625ZM4.67147 1.28407L5.25562 1.58314C5.32967 1.43851 5.46381 1.34287 5.61319 1.31861L5.50798 0.670849L5.40278 0.0230865C4.83506 0.11529 4.34868 0.474546 4.08733 0.985L4.67147 1.28407ZM5.50798 0.670849L5.61321 1.31861C5.63815 1.31456 5.67474 1.3125 5.89851 1.3125V0.65625V0C5.72142 0 5.55755 -0.00205666 5.40276 0.0230902L5.50798 0.670849ZM5.89851 0.65625V1.3125H8.41392V0.65625V0H5.89851V0.65625ZM8.41392 0.65625V1.3125C8.63769 1.3125 8.6743 1.31456 8.6992 1.3186L8.80445 0.670849L8.90969 0.0230931C8.7549 -0.00205773 8.59099 0 8.41392 0V0.65625ZM8.80445 0.670849L8.69925 1.31861C8.84863 1.34287 8.98276 1.4385 9.05682 1.58314L9.64096 1.28407L10.2251 0.985C9.96376 0.474558 9.4774 0.11529 8.90965 0.0230855L8.80445 0.670849ZM9.64096 1.28407L9.05688 1.58328C9.06975 1.60838 9.08392 1.64547 9.15447 1.86067L9.77807 1.65625L10.4017 1.45182C10.3454 1.28026 10.2963 1.12397 10.225 0.984869L9.64096 1.28407ZM9.77807 1.65625L9.15446 1.86065L9.22871 2.08718L9.85232 1.88278L10.4759 1.67838L10.4017 1.45185L9.77807 1.65625ZM9.85232 1.88278L9.22853 2.08664C9.24122 2.12545 9.25081 2.15479 9.26075 2.18278L9.87916 1.96317L10.4976 1.74355C10.4944 1.7345 10.4903 1.72248 10.4761 1.67893L9.85232 1.88278ZM9.87916 1.96317L9.26085 2.18307C9.56425 3.03612 10.3552 3.62175 11.2617 3.64512L11.2786 2.98909L11.2956 2.33305C10.9426 2.32396 10.6226 2.09512 10.4975 1.74326L9.87916 1.96317ZM11.2786 2.98909L11.2618 3.64512C11.2916 3.64589 11.323 3.64583 11.3621 3.64583V2.98958V2.33333C11.3156 2.33333 11.3044 2.33328 11.2955 2.33305L11.2786 2.98909Z" fill="#D32F2F"/>
</svg>
