<svg width="26" height="22" viewBox="0 0 26 22" fill="none" xmlns="http://www.w3.org/2000/svg">
<path d="M0.851562 5.51628L4.48072 8.54054C4.72034 8.74028 5.02238 8.84961 5.3343 8.84961H20.3688C20.6808 8.84961 20.9828 8.74028 21.2224 8.54054L24.8516 5.51628M5.51823 13.5163H5.53156M20.1849 13.5163H20.1982M7.73243 0.849609H17.9708C18.9277 0.849609 19.8113 1.36237 20.286 2.19324L24.1489 8.95321C24.6093 9.75908 24.8516 10.6711 24.8516 11.5993V19.5163C24.8516 20.2527 24.2546 20.8496 23.5182 20.8496H22.1849C21.4485 20.8496 20.8516 20.2527 20.8516 19.5163V18.1829H4.85156V19.5163C4.85156 20.2527 4.2546 20.8496 3.51823 20.8496H2.1849C1.44852 20.8496 0.851562 20.2527 0.851562 19.5163V11.5993C0.851562 10.6711 1.09378 9.75908 1.55427 8.95321L5.41711 2.19324C5.89188 1.36237 6.77547 0.849609 7.73243 0.849609ZM6.1849 13.5163C6.1849 13.8844 5.88642 14.1829 5.51823 14.1829C5.15004 14.1829 4.85156 13.8844 4.85156 13.5163C4.85156 13.1481 5.15004 12.8496 5.51823 12.8496C5.88642 12.8496 6.1849 13.1481 6.1849 13.5163ZM20.8516 13.5163C20.8516 13.8844 20.553 14.1829 20.1849 14.1829C19.8168 14.1829 19.5182 13.8844 19.5182 13.5163C19.5182 13.1481 19.8168 12.8496 20.1849 12.8496C20.553 12.8496 20.8516 13.1481 20.8516 13.5163Z" stroke="#7B7B7B" stroke-width="1.7" stroke-linecap="round" stroke-linejoin="round"/>
</svg>
