<svg width="40" height="41" viewBox="0 0 40 41" fill="none" xmlns="http://www.w3.org/2000/svg">
<rect y="0.5" width="40" height="40" rx="8" fill="#D32F2F" fill-opacity="0.15"/>
<path d="M15.3515 16.4958C15.3492 16.91 15.6831 17.2477 16.0973 17.25C16.5115 17.2523 16.8492 16.9184 16.8515 16.5042L16.1015 16.5L15.3515 16.4958ZM16.803 13.2029L16.2727 12.6726L16.2727 12.6726L16.803 13.2029ZM25.797 13.2029L25.2667 13.7332L25.2667 13.7333L25.797 13.2029ZM25.797 27.797L25.2667 27.2667L25.2667 27.2667L25.797 27.797ZM16.803 27.797L16.2727 28.3274L16.2727 28.3274L16.803 27.797ZM16.8515 24.4958C16.8492 24.0816 16.5115 23.7477 16.0973 23.75C15.6831 23.7523 15.3492 24.09 15.3515 24.5042L16.1015 24.5L16.8515 24.4958ZM20.8999 21.25C21.3141 21.25 21.6499 20.9142 21.6499 20.5C21.6499 20.0858 21.3141 19.75 20.8999 19.75V20.5V21.25ZM10.5 20.5L10.0119 19.9306C9.84567 20.073 9.75 20.2811 9.75 20.5C9.75 20.7189 9.84567 20.927 10.0119 21.0694L10.5 20.5ZM13.7881 18.6694C14.1026 18.3999 14.139 17.9264 13.8694 17.6119C13.5998 17.2974 13.1264 17.261 12.8119 17.5306L13.3 18.1L13.7881 18.6694ZM12.8119 23.4694C13.1264 23.739 13.5998 23.7026 13.8694 23.3881C14.139 23.0736 14.1026 22.6001 13.7881 22.3306L13.3 22.9L12.8119 23.4694ZM16.1015 16.5L16.8515 16.5042C16.8564 15.6282 16.8793 15.0207 16.9631 14.565C17.0428 14.1306 17.1668 13.8999 17.3334 13.7333L16.803 13.2029L16.2727 12.6726C15.8246 13.1207 15.6026 13.6685 15.4877 14.294C15.3768 14.8981 15.3563 15.6318 15.3515 16.4958L16.1015 16.5ZM16.803 13.2029L17.3334 13.7333C17.5223 13.5444 17.7962 13.4079 18.3666 13.3312C18.9585 13.2516 19.7475 13.25 20.9001 13.25V12.5V11.75C19.7899 11.75 18.8819 11.7484 18.1667 11.8446C17.43 11.9436 16.7868 12.1586 16.2727 12.6726L16.803 13.2029ZM20.9001 12.5V13.25H21.7V12.5V11.75H20.9001V12.5ZM21.7 12.5V13.25C22.8526 13.25 23.6416 13.2516 24.2335 13.3312C24.8039 13.4079 25.0778 13.5444 25.2667 13.7332L25.797 13.2029L26.3274 12.6726C25.8134 12.1586 25.1701 11.9436 24.4334 11.8446C23.7183 11.7484 22.8102 11.75 21.7 11.75V12.5ZM25.797 13.2029L25.2667 13.7333C25.4556 13.9222 25.5921 14.1961 25.6688 14.7665C25.7484 15.3584 25.75 16.1474 25.75 17.3H26.5H27.25C27.25 16.1898 27.2516 15.2818 27.1554 14.5666C27.0564 13.8299 26.8414 13.1867 26.3274 12.6726L25.797 13.2029ZM26.5 17.3H25.75V23.7H26.5H27.25V17.3H26.5ZM26.5 23.7H25.75C25.75 24.8526 25.7484 25.6415 25.6688 26.2335C25.5921 26.8039 25.4556 27.0778 25.2667 27.2667L25.797 27.797L26.3274 28.3274C26.8414 27.8133 27.0564 27.1701 27.1554 26.4334C27.2516 25.7182 27.25 24.8102 27.25 23.7H26.5ZM25.797 27.797L25.2667 27.2667C25.0778 27.4556 24.8039 27.5921 24.2335 27.6688C23.6416 27.7484 22.8526 27.75 21.7 27.75V28.5V29.25C22.8102 29.25 23.7183 29.2516 24.4334 29.1554C25.1701 29.0564 25.8134 28.8414 26.3274 28.3273L25.797 27.797ZM21.7 28.5V27.75H20.9001V28.5V29.25H21.7V28.5ZM20.9001 28.5V27.75C19.7475 27.75 18.9585 27.7484 18.3666 27.6688C17.7962 27.5921 17.5223 27.4556 17.3334 27.2667L16.803 27.797L16.2727 28.3274C16.7868 28.8414 17.43 29.0564 18.1667 29.1554C18.8819 29.2516 19.7899 29.25 20.9001 29.25V28.5ZM16.803 27.797L17.3334 27.2667C17.1668 27.1001 17.0428 26.8693 16.9631 26.435C16.8793 25.9792 16.8564 25.3718 16.8515 24.4958L16.1015 24.5L15.3515 24.5042C15.3563 25.3682 15.3768 26.1019 15.4877 26.706C15.6026 27.3315 15.8246 27.8793 16.2727 28.3274L16.803 27.797ZM20.8999 20.5V19.75H10.5V20.5V21.25H20.8999V20.5ZM10.5 20.5L10.9881 21.0694L13.7881 18.6694L13.3 18.1L12.8119 17.5306L10.0119 19.9306L10.5 20.5ZM10.5 20.5L10.0119 21.0694L12.8119 23.4694L13.3 22.9L13.7881 22.3306L10.9881 19.9306L10.5 20.5Z" fill="#D32F2F"/>
</svg>
