<svg width="17" height="15" viewBox="0 0 17 15" fill="none" xmlns="http://www.w3.org/2000/svg">
<path d="M13.1991 5.82119H12.7825M10.2825 0.699951H6.1158M10.6991 8.18485C10.6991 9.49025 9.57985 10.5485 8.19914 10.5485C6.81842 10.5485 5.69914 9.49025 5.69914 8.18485C5.69914 6.87944 6.81842 5.82119 8.19914 5.82119C9.57985 5.82119 10.6991 6.87944 10.6991 8.18485ZM6.53255 13.7H9.86589C12.2066 13.7 13.3771 13.7 14.2178 13.1688C14.5817 12.9389 14.8942 12.6434 15.1375 12.2993C15.6992 11.5044 15.6992 10.3979 15.6992 8.18477C15.6992 5.97168 15.6991 4.86528 15.1373 4.07038C14.8941 3.72627 14.5816 3.43081 14.2176 3.20088C13.3769 2.66975 12.2066 2.66975 9.8658 2.66975H6.53243C4.19166 2.66975 3.02127 2.66975 2.18053 3.20088C1.81656 3.43081 1.50406 3.72627 1.26086 4.07038C0.699219 4.8651 0.699219 5.97113 0.699219 8.18327V8.18477C0.699219 10.3979 0.699219 11.5044 1.26099 12.2993C1.50418 12.6434 1.81669 12.9389 2.18065 13.1688C3.02139 13.7 4.19178 13.7 6.53255 13.7Z" stroke="black" stroke-width="1.4" stroke-linecap="round"/>
</svg>
