<svg width="15" height="16" viewBox="0 0 15 16" fill="none" xmlns="http://www.w3.org/2000/svg">
<path fill-rule="evenodd" clip-rule="evenodd" d="M9.80769 3.37267e-07H6.68738C5.27372 -1.45465e-05 4.15399 -2.20343e-05 3.27768 0.113965C2.37582 0.231264 1.64585 0.478423 1.07018 1.03534C0.494523 1.59227 0.239047 2.29846 0.1178 3.17096C-2.26842e-05 4.01875 -1.5036e-05 5.10201 3.48582e-07 6.46963V10.9767C3.48582e-07 12.37 1.05542 13.5248 2.43501 13.7337C2.54114 14.3023 2.74425 14.7876 3.15258 15.1827C3.61559 15.6306 4.19857 15.8233 4.89096 15.9133C5.55786 16 6.40577 16 7.45777 16H9.84992C10.9019 16 11.7498 16 12.4168 15.9133C13.1092 15.8233 13.6921 15.6306 14.1552 15.1827C14.6182 14.7347 14.8173 14.1707 14.9104 13.5009C15 12.8557 15 12.0353 15 11.0176V7.21496C15 6.19724 15 5.37691 14.9104 4.73172C14.8173 4.06187 14.6182 3.49788 14.1552 3.04994C13.7468 2.65491 13.2452 2.4584 12.6575 2.35573C12.4415 1.02106 11.2478 3.37267e-07 9.80769 3.37267e-07ZM11.4456 2.24831C11.2127 1.58975 10.5674 1.11628 9.80769 1.11628H6.73077C5.26398 1.11628 4.22193 1.11746 3.43142 1.22029C2.65751 1.32095 2.21162 1.50972 1.88608 1.82467C1.56053 2.13962 1.3654 2.57098 1.26135 3.3197C1.15507 4.08447 1.15385 5.0926 1.15385 6.51163V10.9767C1.15385 11.7117 1.64326 12.336 2.32398 12.5613C2.30768 12.1075 2.30769 11.5942 2.30769 11.0176V7.21496C2.30768 6.19724 2.30766 5.37691 2.39732 4.73172C2.49042 4.06187 2.68956 3.49788 3.15258 3.04994C3.61559 2.60199 4.19857 2.40933 4.89096 2.31927C5.55786 2.23253 6.40577 2.23254 7.45777 2.23256H9.84992C10.4459 2.23255 10.9765 2.23254 11.4456 2.24831ZM3.96847 3.83926C4.18136 3.6333 4.48027 3.49901 5.04471 3.4256C5.62575 3.35002 6.39585 3.34884 7.5 3.34884H9.80769C10.9118 3.34884 11.6819 3.35002 12.263 3.4256C12.8275 3.49901 13.1263 3.6333 13.3392 3.83926C13.5522 4.04522 13.6909 4.3344 13.7668 4.88046C13.8449 5.44258 13.8462 6.18759 13.8462 7.25581V10.9767C13.8462 12.0449 13.8449 12.79 13.7668 13.3521C13.6909 13.8982 13.5522 14.1873 13.3392 14.3933C13.1263 14.5993 12.8275 14.7335 12.263 14.807C11.6819 14.8825 10.9118 14.8837 9.80769 14.8837H7.5C6.39585 14.8837 5.62575 14.8825 5.04471 14.807C4.48027 14.7335 4.18136 14.5993 3.96847 14.3933C3.75558 14.1873 3.61677 13.8982 3.54088 13.3521C3.46276 12.79 3.46154 12.0449 3.46154 10.9767V7.25581C3.46154 6.18759 3.46276 5.44258 3.54088 4.88046C3.61677 4.3344 3.75558 4.04522 3.96847 3.83926Z" fill="#929292"/>
</svg>
