<svg width="37" height="22" viewBox="0 0 37 22" fill="none" xmlns="http://www.w3.org/2000/svg">
<path fill-rule="evenodd" clip-rule="evenodd" d="M18.4993 19.2723C16.6343 20.8913 14.2149 21.8686 11.5714 21.8686C5.67252 21.8686 0.890625 17.0026 0.890625 11.0001C0.890625 4.99756 5.67252 0.131592 11.5714 0.131592C14.2149 0.131592 16.6343 1.10894 18.4993 2.72797C20.3644 1.10894 22.7837 0.131592 25.4274 0.131592C31.3261 0.131592 36.108 4.99756 36.108 11.0001C36.108 17.0026 31.3261 21.8686 25.4274 21.8686C22.7837 21.8686 20.3644 20.8913 18.4993 19.2723Z" fill="#ED0006"/>
<path fill-rule="evenodd" clip-rule="evenodd" d="M18.4993 19.2723C20.7958 17.2788 22.252 14.3125 22.252 11.0001C22.252 7.6877 20.7958 4.7214 18.4993 2.72797C20.3644 1.10894 22.7837 0.131592 25.4274 0.131592C31.3261 0.131592 36.108 4.99756 36.108 11.0001C36.108 17.0026 31.3261 21.8686 25.4274 21.8686C22.7837 21.8686 20.3644 20.8913 18.4993 19.2723Z" fill="#F9A000"/>
<path fill-rule="evenodd" clip-rule="evenodd" d="M18.4993 2.72797C20.7958 4.7214 22.252 7.6877 22.252 11.0001C22.252 14.3125 20.7958 17.2788 18.4993 19.2723C16.2029 17.2788 14.7468 14.3125 14.7468 11.0001C14.7468 7.6877 16.2029 4.72148 18.4993 2.72797Z" fill="#FF5E00"/>
</svg>
