<svg width="25" height="25" viewBox="0 0 25 25" fill="none" xmlns="http://www.w3.org/2000/svg">
<path d="M18.8129 9.20179C19.0532 9.01606 19.0975 8.67065 18.9118 8.43029C18.726 8.18993 18.3806 8.14565 18.1403 8.33138L18.4766 8.76659L18.8129 9.20179ZM13.5822 12.5486L13.9184 12.9839L13.9185 12.9838L13.5822 12.5486ZM11.4241 12.5486L11.0878 12.9838L11.0878 12.9839L11.4241 12.5486ZM6.86596 8.33138C6.62561 8.14565 6.28019 8.18993 6.09446 8.43029C5.90873 8.67065 5.95302 9.01607 6.19338 9.2018L6.52967 8.76659L6.86596 8.33138ZM16.915 20V19.45H8.09145V20V20.55H16.915V20ZM8.09145 20V19.45C6.85223 19.45 5.90357 19.1401 5.26717 18.5492C4.63815 17.9651 4.22969 17.0275 4.22969 15.5882H3.67969H3.12969C3.12969 17.2372 3.60358 18.5055 4.51867 19.3552C5.42639 20.1981 6.68361 20.55 8.09145 20.55V20ZM3.67969 15.5882H4.22969V9.41176H3.67969H3.12969V15.5882H3.67969ZM3.67969 9.41176H4.22969C4.22969 7.97248 4.63815 7.03492 5.26717 6.45083C5.90357 5.85988 6.85223 5.55 8.09145 5.55V5V4.45C6.68361 4.45 5.42639 4.80188 4.51867 5.64476C3.60358 6.49449 3.12969 7.76282 3.12969 9.41176H3.67969ZM8.09145 5V5.55H16.915V5V4.45H8.09145V5ZM16.915 5V5.55C18.1542 5.55 19.1029 5.85988 19.7393 6.45083C20.3683 7.03492 20.7767 7.97248 20.7767 9.41176H21.3267H21.8767C21.8767 7.76282 21.4029 6.49449 20.4878 5.64476C19.58 4.80188 18.3228 4.45 16.915 4.45V5ZM21.3267 9.41176H20.7767V15.5882H21.3267H21.8767V9.41176H21.3267ZM21.3267 15.5882H20.7767C20.7767 17.0275 20.3683 17.9651 19.7393 18.5492C19.1029 19.1401 18.1542 19.45 16.915 19.45V20V20.55C18.3228 20.55 19.58 20.1981 20.4878 19.3552C21.4029 18.5055 21.8767 17.2372 21.8767 15.5882H21.3267ZM18.4766 8.76659L18.1403 8.33138L13.2459 12.1134L13.5822 12.5486L13.9185 12.9838L18.8129 9.20179L18.4766 8.76659ZM13.5822 12.5486L13.2459 12.1134C12.8084 12.4514 12.1979 12.4514 11.7604 12.1134L11.4241 12.5486L11.0878 12.9839C11.9215 13.6279 13.0848 13.6279 13.9184 12.9839L13.5822 12.5486ZM11.4241 12.5486L11.7604 12.1134L6.86596 8.33138L6.52967 8.76659L6.19338 9.2018L11.0878 12.9838L11.4241 12.5486Z" fill="black" fill-opacity="0.6"/>
</svg>
