<svg width="29" height="29" viewBox="0 0 29 29" fill="none" xmlns="http://www.w3.org/2000/svg">
<rect x="0.5" y="0.484375" width="28" height="28" rx="7" fill="#37A755"/>
<path d="M14.5 7.48437C12.9087 7.48437 11.3826 8.11652 10.2574 9.24173C9.13214 10.367 8.5 11.8931 8.5 13.4844C8.5 15.9684 10.3933 18.571 14.1 21.351C14.2154 21.4376 14.3558 21.4844 14.5 21.4844C14.6442 21.4844 14.7846 21.4376 14.9 21.351C18.6067 18.571 20.5 15.9684 20.5 13.4844C20.5 11.8931 19.8679 10.367 18.7426 9.24173C17.6174 8.11652 16.0913 7.48437 14.5 7.48437ZM14.5 11.4844C15.0304 11.4844 15.5391 11.6951 15.9142 12.0702C16.2893 12.4452 16.5 12.9539 16.5 13.4844C16.5 14.0148 16.2893 14.5235 15.9142 14.8986C15.5391 15.2737 15.0304 15.4844 14.5 15.4844C13.9696 15.4844 13.4609 15.2737 13.0858 14.8986C12.7107 14.5235 12.5 14.0148 12.5 13.4844C12.5 12.9539 12.7107 12.4452 13.0858 12.0702C13.4609 11.6951 13.9696 11.4844 14.5 11.4844Z" fill="white"/>
</svg>
