<svg width="412" height="203" viewBox="0 0 412 203" fill="none" xmlns="http://www.w3.org/2000/svg">
<g filter="url(#filter0_d_16446_6219)">
<g clip-path="url(#clip0_16446_6219)">
<rect x="20" y="20" width="372" height="162.094" rx="20" fill="url(#paint0_linear_16446_6219)"/>
<circle cx="235.151" cy="203.667" r="104.37" fill="black" fill-opacity="0.04"/>
<circle cx="77.724" cy="157.021" r="162.677" fill="black" fill-opacity="0.05"/>
<rect x="314" y="13" width="85" height="85" rx="42.5" fill="white" fill-opacity="0.1"/>
<path opacity="0.6" fill-rule="evenodd" clip-rule="evenodd" d="M374.581 47.7032C374.451 47.6952 374.31 47.6953 374.164 47.6953L374.127 47.6953H368.391C363.663 47.6953 359.617 51.3092 359.617 56.0218C359.617 60.7345 363.663 64.3484 368.391 64.3484H374.127H374.164C374.31 64.3484 374.451 64.3484 374.581 64.3405C376.501 64.2229 378.2 62.7634 378.343 60.7251C378.352 60.5915 378.352 60.4474 378.352 60.314V60.2775V51.7661V51.7298C378.352 51.5963 378.352 51.4522 378.343 51.3186C378.2 49.2803 376.501 47.8209 374.581 47.7032ZM367.883 58.2423C369.1 58.2423 370.087 57.2481 370.087 56.0218C370.087 54.7956 369.1 53.8014 367.883 53.8014C366.665 53.8014 365.678 54.7956 365.678 56.0218C365.678 57.2481 366.665 58.2423 367.883 58.2423Z" fill="white"/>
<path opacity="0.9" d="M374.482 47.6965C374.482 45.2389 374.393 42.6026 372.822 40.7127C372.67 40.5303 372.508 40.3532 372.336 40.1812C370.779 38.6234 368.803 37.932 366.363 37.6039C363.991 37.2851 360.961 37.2851 357.136 37.2852H352.738C348.912 37.2851 345.882 37.2851 343.51 37.6039C341.07 37.932 339.095 38.6234 337.537 40.1812C335.979 41.739 335.288 43.7144 334.959 46.155C334.641 48.5264 334.641 51.5564 334.641 55.382V55.6168C334.641 59.4425 334.641 62.4725 334.959 64.8439C335.288 67.2844 335.979 69.2599 337.537 70.8178C339.095 72.3754 341.07 73.0668 343.51 73.395C345.882 73.7137 348.912 73.7137 352.737 73.7137H357.136C360.961 73.7137 363.991 73.7137 366.363 73.395C368.803 73.0668 370.779 72.3754 372.336 70.8178C372.762 70.3919 373.124 69.9343 373.431 69.4435C374.369 67.9457 374.482 66.1101 374.482 64.3433C374.381 64.3464 374.276 64.3464 374.167 64.3464H368.394C363.666 64.3464 359.62 60.7325 359.62 56.0198C359.62 51.3072 363.666 47.6933 368.394 47.6933H374.167C374.276 47.6933 374.381 47.6933 374.482 47.6965Z" fill="white"/>
<path d="M342.444 45.6133C341.582 45.6133 340.883 46.3123 340.883 47.1745C340.883 48.0367 341.582 48.7357 342.444 48.7357H350.771C351.633 48.7357 352.332 48.0367 352.332 47.1745C352.332 46.3123 351.633 45.6133 350.771 45.6133H342.444Z" fill="#B9E2C4"/>
</g>
</g>
<defs>
<filter id="filter0_d_16446_6219" x="0" y="0" width="412" height="202.094" filterUnits="userSpaceOnUse" color-interpolation-filters="sRGB">
<feFlood flood-opacity="0" result="BackgroundImageFix"/>
<feColorMatrix in="SourceAlpha" type="matrix" values="0 0 0 0 0 0 0 0 0 0 0 0 0 0 0 0 0 0 127 0" result="hardAlpha"/>
<feOffset/>
<feGaussianBlur stdDeviation="10"/>
<feComposite in2="hardAlpha" operator="out"/>
<feColorMatrix type="matrix" values="0 0 0 0 0 0 0 0 0 0 0 0 0 0 0 0 0 0 0.15 0"/>
<feBlend mode="normal" in2="BackgroundImageFix" result="effect1_dropShadow_16446_6219"/>
<feBlend mode="normal" in="SourceGraphic" in2="effect1_dropShadow_16446_6219" result="shape"/>
</filter>
<linearGradient id="paint0_linear_16446_6219" x1="206" y1="20" x2="206" y2="182.094" gradientUnits="userSpaceOnUse">
<stop stop-color="#46BD66"/>
<stop offset="1" stop-color="#22833C"/>
</linearGradient>
<clipPath id="clip0_16446_6219">
<rect x="20" y="20" width="372" height="162.094" rx="20" fill="white"/>
</clipPath>
</defs>
</svg>
