<svg width="23" height="23" viewBox="0 0 23 23" fill="none" xmlns="http://www.w3.org/2000/svg">
<rect width="23" height="23" rx="11.5" fill="url(#paint0_linear_10413_4030)"/>
<path d="M11.5 5.5C10.3133 5.5 9.15328 5.85189 8.16658 6.51118C7.17989 7.17047 6.41085 8.10754 5.95673 9.2039C5.5026 10.3003 5.38378 11.5067 5.61529 12.6705C5.8468 13.8344 6.41825 14.9035 7.25736 15.7426C8.09648 16.5818 9.16557 17.1532 10.3295 17.3847C11.4933 17.6162 12.6997 17.4974 13.7961 17.0433C14.8925 16.5891 15.8295 15.8201 16.4888 14.8334C17.1481 13.8467 17.5 12.6867 17.5 11.5C17.4981 9.90928 16.8654 8.38424 15.7406 7.25943C14.6158 6.13462 13.0907 5.50188 11.5 5.5ZM11.5 16.4091C10.5291 16.4091 9.57995 16.1212 8.77266 15.5818C7.96536 15.0423 7.33615 14.2756 6.96459 13.3786C6.59304 12.4816 6.49582 11.4946 6.68524 10.5423C6.87466 9.59001 7.3422 8.7153 8.02875 8.02875C8.7153 7.3422 9.59001 6.87465 10.5423 6.68524C11.4946 6.49582 12.4816 6.59303 13.3786 6.96459C14.2756 7.33615 15.0423 7.96536 15.5818 8.77265C16.1212 9.57995 16.4091 10.5291 16.4091 11.5C16.4076 12.8015 15.89 14.0493 14.9697 14.9697C14.0493 15.89 12.8015 16.4076 11.5 16.4091Z" fill="white"/>
<path d="M13.3657 9.63424C13.2832 9.55181 13.1714 9.5055 13.0548 9.5055C12.9381 9.5055 12.8263 9.55181 12.7438 9.63424L11.5 10.8782L10.2562 9.63424C10.2156 9.59224 10.1671 9.55875 10.1134 9.5357C10.0598 9.51265 10.002 9.50052 9.94364 9.50002C9.88524 9.49951 9.82733 9.51064 9.77328 9.53274C9.71922 9.55485 9.67012 9.58751 9.62882 9.62879C9.58752 9.67008 9.55487 9.71918 9.53275 9.77322C9.51064 9.82726 9.49951 9.88516 9.50002 9.94355C9.50052 10.0019 9.51266 10.0596 9.53571 10.1133C9.55876 10.1669 9.59226 10.2155 9.63427 10.256L10.8781 11.5L9.63427 12.744C9.59226 12.7845 9.55876 12.8331 9.53571 12.8867C9.51266 12.9404 9.50052 12.9981 9.50002 13.0565C9.49951 13.1148 9.51064 13.1727 9.53275 13.2268C9.55487 13.2808 9.58752 13.3299 9.62882 13.3712C9.67012 13.4125 9.71922 13.4451 9.77328 13.4673C9.82733 13.4894 9.88524 13.5005 9.94364 13.5C10.002 13.4995 10.0598 13.4873 10.1134 13.4643C10.1671 13.4413 10.2156 13.4078 10.2562 13.3658L11.5 12.1218L12.7438 13.3658C12.7844 13.4078 12.8329 13.4413 12.8866 13.4643C12.9402 13.4873 12.998 13.4995 13.0564 13.5C13.1148 13.5005 13.1727 13.4894 13.2267 13.4673C13.2808 13.4451 13.3299 13.4125 13.3712 13.3712C13.4125 13.3299 13.4451 13.2808 13.4672 13.2268C13.4894 13.1727 13.5005 13.1148 13.5 13.0565C13.4995 12.9981 13.4873 12.9404 13.4643 12.8867C13.4412 12.8331 13.4077 12.7845 13.3657 12.744L12.1219 11.5L13.3657 10.256C13.4482 10.1736 13.4945 10.0617 13.4945 9.94513C13.4945 9.82853 13.4482 9.7167 13.3657 9.63424Z" fill="white"/>
<defs>
<linearGradient id="paint0_linear_10413_4030" x1="11.5" y1="0" x2="11.5" y2="23" gradientUnits="userSpaceOnUse">
<stop stop-color="#E5262F"/>
<stop offset="1" stop-color="#FA5052"/>
</linearGradient>
</defs>
</svg>
