<svg width="32" height="33" viewBox="0 0 32 33" fill="none" xmlns="http://www.w3.org/2000/svg">
<rect y="0.5" width="32" height="32" rx="8" fill="#37A755" fill-opacity="0.1"/>
<g clip-path="url(#clip0_14725_22387)">
<path d="M16.0703 8.75977L22.584 10.6426C22.6343 10.6571 22.6768 10.6867 22.7061 10.7246C22.7352 10.7623 22.75 10.8069 22.75 10.8516V17.7549C22.75 18.5795 22.4037 19.4448 21.6846 20.3291C21.135 21.0049 20.3682 21.6914 19.3994 22.3672C18.1769 23.2199 16.9667 23.826 16.4121 24.0869L16.0996 24.2295C16.0686 24.2429 16.0346 24.25 16 24.25C15.9828 24.25 15.9658 24.2485 15.9492 24.2451L15.9004 24.2295C15.8381 24.2026 14.2304 23.5039 12.6006 22.3672C11.6318 21.6914 10.865 21.0048 10.3154 20.3291C9.59627 19.4447 9.25 18.5795 9.25 17.7549V10.8516L9.26074 10.7852C9.2681 10.7638 9.27944 10.7434 9.29395 10.7246C9.32322 10.6867 9.36569 10.6571 9.41602 10.6426L15.9297 8.75977C15.9754 8.74653 16.0245 8.74655 16.0703 8.75977ZM22.2773 11.0127L22.0967 10.96L16.0693 9.21777L16 9.19824L15.9307 9.21777L9.90332 10.96L9.72266 11.0127V17.7549C9.72266 18.6355 10.1796 19.4621 10.7832 20.1738C11.3899 20.8892 12.1702 21.5186 12.873 22.0098C14.1346 22.8914 15.4113 23.5157 15.8945 23.7402L16 23.7891L16.1055 23.7402C16.5886 23.5158 17.8654 22.8914 19.127 22.0098C19.8298 21.5186 20.6101 20.8892 21.2168 20.1738C21.8204 19.4621 22.2773 18.6355 22.2773 17.7549V11.0127Z" fill="black" stroke="#37A755" stroke-width="0.5"/>
</g>
<defs>
<clipPath id="clip0_14725_22387">
<rect width="16" height="16" fill="white" transform="translate(8 8.5)"/>
</clipPath>
</defs>
</svg>
