<svg width="28" height="28" viewBox="0 0 28 28" fill="none" xmlns="http://www.w3.org/2000/svg">
<rect width="28" height="28" rx="7" fill="#37A755"/>
<path d="M8.42527 6C8.78742 6 9.08101 6.29359 9.08101 6.65574V8.27322L10.5854 7.97235C12.0285 7.68372 13.5244 7.82106 14.8908 8.36762L15.2521 8.51217C16.4979 9.01047 17.869 9.10354 19.1707 8.77811C19.7224 8.64019 20.1654 9.23812 19.8729 9.72574L18.7551 11.5888C18.4565 12.0864 18.3071 12.3353 18.2717 12.6059C18.257 12.7188 18.257 12.8331 18.2717 12.946C18.3071 13.2167 18.4565 13.4655 18.7551 13.9631L20.1195 16.2373C20.3913 16.6902 20.1483 17.2769 19.6358 17.405L19.5483 17.4269C18.0011 17.8137 16.3715 17.7031 14.8908 17.1108C13.5244 16.5642 12.0285 16.4269 10.5854 16.7155L9.08101 17.0164V21.3443C9.08101 21.7064 8.78742 22 8.42527 22C8.06312 22 7.76953 21.7064 7.76953 21.3443V6.65574C7.76953 6.29359 8.06312 6 8.42527 6Z" fill="white"/>
</svg>
