<svg width="28" height="28" viewBox="0 0 28 28" fill="none" xmlns="http://www.w3.org/2000/svg">
<rect width="28" height="28" rx="7" fill="#37A755"/>
<path fill-rule="evenodd" clip-rule="evenodd" d="M6.22252 15.4023V20.4167C6.22252 20.7387 6.48385 21 6.80585 21H8.06118C8.19933 21 8.333 20.951 8.4384 20.8617C8.5438 20.7724 8.61408 20.6486 8.63674 20.5123L8.94474 18.6667H19.0558L19.3631 20.5123C19.3857 20.6486 19.456 20.7724 19.5614 20.8617C19.6668 20.951 19.8005 21 19.9386 21H21.1947C21.3494 21 21.4978 20.9385 21.6072 20.8291C21.7166 20.7198 21.7781 20.5714 21.7781 20.4167V15.4023C21.7781 14.488 21.5075 13.5941 21.0003 12.8333L20.3936 11.9233C20.3395 11.8423 20.2932 11.7564 20.2552 11.6667H21.0283C21.1367 11.6667 21.2429 11.6365 21.3351 11.5794C21.4273 11.5224 21.5018 11.4409 21.5502 11.3439L21.7446 10.955C21.789 10.8661 21.8099 10.7674 21.8055 10.6682C21.801 10.5689 21.7712 10.4725 21.719 10.388C21.6669 10.3034 21.5939 10.2336 21.5072 10.1852C21.4205 10.1367 21.3229 10.1112 21.2235 10.1111H19.9114L19.6703 8.90867C19.5969 8.54245 19.4197 8.20512 19.1597 7.93698C18.8997 7.66885 18.568 7.48127 18.2042 7.39667C17.0671 7.13222 15.6655 7 14.0003 7C12.3343 7 10.9335 7.13222 9.7964 7.39667C9.43248 7.48114 9.1006 7.66866 8.84046 7.9368C8.58032 8.20495 8.40293 8.54235 8.32952 8.90867L8.0884 10.1111H6.77785C6.67851 10.1112 6.58086 10.1367 6.49414 10.1852C6.40742 10.2336 6.33451 10.3034 6.28232 10.388C6.23013 10.4725 6.20038 10.5689 6.19591 10.6682C6.19143 10.7674 6.21237 10.8661 6.25674 10.955L6.45118 11.3439C6.49954 11.4407 6.57389 11.5222 6.66592 11.5792C6.75796 11.6362 6.86404 11.6665 6.97229 11.6667H7.74618C7.70818 11.7564 7.66182 11.8423 7.60774 11.9233L7.00029 12.8333C6.49318 13.594 6.22252 14.4877 6.22252 15.4023ZM18.6366 11.6698C18.6902 11.9388 18.7791 12.1995 18.9011 12.4452H9.09951C9.22163 12.2002 9.31029 11.9397 9.36396 11.6698L9.85552 9.21433C9.87002 9.14092 9.90541 9.07325 9.95742 9.01945C10.0094 8.96564 10.0759 8.92799 10.1487 8.911C11.1583 8.67767 12.4447 8.55556 14.0003 8.55556C15.5558 8.55556 16.8423 8.67689 17.8518 8.91178C17.9248 8.92858 17.9913 8.96606 18.0434 9.01972C18.0956 9.07339 18.1311 9.14096 18.1458 9.21433L18.6366 11.6698ZM8.94474 16.3333C9.25416 16.3333 9.5509 16.2104 9.7697 15.9916C9.98849 15.7728 10.1114 15.4761 10.1114 15.1667C10.1114 14.8572 9.98849 14.5605 9.7697 14.3417C9.5509 14.1229 9.25416 14 8.94474 14C8.63532 14 8.33857 14.1229 8.11978 14.3417C7.90099 14.5605 7.77807 14.8572 7.77807 15.1667C7.77807 15.4761 7.90099 15.7728 8.11978 15.9916C8.33857 16.2104 8.63532 16.3333 8.94474 16.3333ZM20.2225 15.1667C20.2225 15.4761 20.0996 15.7728 19.8808 15.9916C19.662 16.2104 19.3653 16.3333 19.0558 16.3333C18.7464 16.3333 18.4497 16.2104 18.2309 15.9916C18.0121 15.7728 17.8892 15.4761 17.8892 15.1667C17.8892 14.8572 18.0121 14.5605 18.2309 14.3417C18.4497 14.1229 18.7464 14 19.0558 14C19.3653 14 19.662 14.1229 19.8808 14.3417C20.0996 14.5605 20.2225 14.8572 20.2225 15.1667Z" fill="white"/>
</svg>
