<svg width="40" height="41" viewBox="0 0 40 41" fill="none" xmlns="http://www.w3.org/2000/svg">
<rect y="0.5" width="40" height="40" rx="8" fill="#EAF6ED"/>
<path d="M20 28.5C24.4182 28.5 28 24.9182 28 20.5M20 28.5C15.5817 28.5 12 24.9182 12 20.5M20 28.5C21.5464 28.5 22.8 24.9182 22.8 20.5C22.8 16.0817 21.5464 12.5 20 12.5M20 28.5C18.4536 28.5 17.2 24.9182 17.2 20.5C17.2 16.0817 18.4536 12.5 20 12.5M28 20.5C28 16.0817 24.4182 12.5 20 12.5M28 20.5H12M20 12.5C15.5817 12.5 12 16.0817 12 20.5" stroke="#37A755" stroke-width="1.35" stroke-linecap="round" stroke-linejoin="round"/>
</svg>
