<svg width="78" height="78" viewBox="0 0 78 78" fill="none" xmlns="http://www.w3.org/2000/svg">
<circle cx="39" cy="39" r="38" stroke="#37A755" stroke-width="2"/>
<path d="M38.995 20.668C33.4803 20.668 29.9053 24.3695 25.6776 25.7188C23.958 26.2688 23.0981 26.542 22.7498 26.9288C22.4015 27.3138 22.3006 27.8803 22.0971 29.0096C19.9155 41.1023 24.6821 52.282 36.0488 56.6343C37.268 57.1018 37.8785 57.3346 39.0005 57.3346C40.1225 57.3346 40.7348 57.1 41.9558 56.6325C53.3206 52.282 58.0818 41.1023 55.9001 29.0096C55.6966 27.8803 55.594 27.3138 55.2456 26.927C54.8973 26.5401 54.0393 26.267 52.3196 25.7188C48.0901 24.3695 44.5096 20.668 38.995 20.668Z" stroke="#37A755" stroke-width="3" stroke-linecap="round" stroke-linejoin="round"/>
<path d="M33.5 40.8333C33.5 40.8333 35.3333 40.8333 37.1667 44.5C37.1667 44.5 42.9912 35.3333 48.1667 33.5" stroke="#37A755" stroke-width="3" stroke-linecap="round" stroke-linejoin="round"/>
</svg>
