<svg width="33" height="28" viewBox="0 0 33 28" fill="none" xmlns="http://www.w3.org/2000/svg">
<path fill-rule="evenodd" clip-rule="evenodd" d="M29.9031 8.22091C29.8072 8.21502 29.7026 8.21506 29.5941 8.21509L29.5671 8.21511H25.3155C21.811 8.21511 18.8125 10.8936 18.8125 14.3865C18.8125 17.8794 21.811 20.5579 25.3155 20.5579H29.5671H29.5941C29.7026 20.5579 29.8072 20.5579 29.9031 20.552C31.3266 20.4649 32.5855 19.3832 32.6914 17.8724C32.6983 17.7734 32.6982 17.6666 32.6982 17.5677V17.5407V11.2322V11.2054C32.6982 11.1064 32.6983 10.9996 32.6914 10.9005C32.5855 9.3898 31.3266 8.30819 29.9031 8.22091ZM24.9385 16.0323C25.8408 16.0323 26.5721 15.2954 26.5721 14.3865C26.5721 13.4776 25.8408 12.7407 24.9385 12.7407C24.0363 12.7407 23.305 13.4776 23.305 14.3865C23.305 15.2954 24.0363 16.0323 24.9385 16.0323Z" fill="#7C3E1E"/>
<path opacity="0.9" d="M29.8261 8.2166C29.8261 6.3951 29.7599 4.44117 28.5955 3.04043C28.4831 2.90521 28.3635 2.77392 28.2361 2.64648C27.0814 1.49187 25.6172 0.979457 23.8084 0.736273C22.0508 0.499954 19.805 0.499985 16.9695 0.5H13.7098C10.8744 0.499985 8.62856 0.499954 6.87093 0.736273C5.06206 0.979457 3.59797 1.49187 2.44335 2.64648C1.28874 3.8011 0.776332 5.26519 0.533148 7.07406C0.296829 8.83169 0.29686 11.0775 0.296875 13.9129V14.087C0.29686 16.9224 0.296829 19.1682 0.533148 20.9258C0.776332 22.7346 1.28874 24.1988 2.44335 25.3535C3.59797 26.508 5.06206 27.0204 6.87093 27.2637C8.62855 27.4999 10.8744 27.4999 13.7097 27.4999H16.9695C19.805 27.4999 22.0508 27.4999 23.8084 27.2637C25.6172 27.0204 27.0814 26.508 28.2361 25.3535C28.5516 25.0378 28.8196 24.6987 29.0473 24.3349C29.7423 23.2248 29.8261 21.8643 29.8261 20.5548C29.7518 20.5571 29.6734 20.5571 29.5928 20.5571H25.3141C21.8096 20.5571 18.8111 17.8785 18.8111 14.3857C18.8111 10.8928 21.8096 8.21427 25.3141 8.21427H29.5927C29.6732 8.21424 29.7518 8.21421 29.8261 8.2166Z" fill="#AA5D24"/>
<path d="M6.07901 6.67212C5.43995 6.67212 4.92188 7.19019 4.92188 7.82926C4.92188 8.46832 5.43995 8.9864 6.07901 8.9864H12.2504C12.8895 8.9864 13.4076 8.46832 13.4076 7.82926C13.4076 7.19019 12.8895 6.67212 12.2504 6.67212H6.07901Z" fill="#7C3E1E"/>
<path d="M14.249 27.4999H13.7127C12.5779 27.4999 11.5376 27.4992 10.5851 27.484V24.8429H14.249V27.4999Z" fill="#7C3E1E"/>
<path d="M18.8293 21.994L14.7991 24.7444V23.8599L8.20311 23.9591C7.19566 24.1556 6.46326 25.0394 6.46309 25.8251V27.2017C4.88659 26.9442 3.58715 26.4459 2.53647 25.4385C2.76331 21.6339 5.69878 20.3225 6.92054 20.2264L14.7991 20.0296V19.1458L18.8293 21.994Z" fill="#7C3E1E"/>
<path d="M6.18733 19.1458C4.16391 19.1455 2.52357 17.386 2.52344 15.2163V13.9344C2.55445 13.9027 2.58688 13.8724 2.61826 13.8411H6.18733V19.1458Z" fill="#7C3E1E"/>
<path d="M14.249 19.1458H10.5851V13.8411H14.249V19.1458Z" fill="#7C3E1E"/>
</svg>
