<svg width="28" height="28" viewBox="0 0 28 28" fill="none" xmlns="http://www.w3.org/2000/svg">
<rect width="28" height="28" rx="7" fill="#37A755"/>
<path d="M9.62603 6.5C7.43971 6.5 6.71094 7.80451 6.71094 9.4151V20.3467C6.71094 20.9516 7.39599 21.2941 7.87698 20.9297L9.12318 19.9969C9.41469 19.7783 9.8228 19.8074 10.0852 20.0698L11.2949 21.2868C11.5792 21.5711 12.0456 21.5711 12.3298 21.2868L13.5541 20.0625C13.8092 19.8074 14.2173 19.7783 14.5015 19.9969L15.7477 20.9297C16.2287 21.2868 16.9138 20.9443 16.9138 20.3467V7.95755C16.9138 7.1559 17.5697 6.5 18.3713 6.5H9.62603ZM13.4521 15.0631H10.1726C9.87382 15.0631 9.62603 14.8153 9.62603 14.5165C9.62603 14.2177 9.87382 13.9699 10.1726 13.9699H13.4521C13.7509 13.9699 13.9987 14.2177 13.9987 14.5165C13.9987 14.8153 13.7509 15.0631 13.4521 15.0631ZM13.9987 12.148H9.62603C9.32724 12.148 9.07945 11.9002 9.07945 11.6014C9.07945 11.3026 9.32724 11.0548 9.62603 11.0548H13.9987C14.2975 11.0548 14.5453 11.3026 14.5453 11.6014C14.5453 11.9002 14.2975 12.148 13.9987 12.148Z" fill="white"/>
<path d="M18.3786 7.59316C18.8596 7.59316 19.3187 7.78993 19.654 8.11788C20.0038 8.47498 20.1933 8.93411 20.1933 9.4151V11.1787C20.1933 11.718 19.9528 11.9658 19.4062 11.9658H18.0069V7.96484C18.0069 7.76078 18.1746 7.59316 18.3786 7.59316ZM18.3786 6.5C17.5697 6.5 16.9138 7.1559 16.9138 7.96484V13.059H19.4062C20.5577 13.059 21.2864 12.3302 21.2864 11.1787V9.4151C21.2864 8.61345 20.9585 7.88467 20.4338 7.35267C19.9018 6.82795 19.1803 6.50729 18.3786 6.5Z" fill="white"/>
</svg>
