<svg width="20" height="21" viewBox="0 0 20 21" fill="none" xmlns="http://www.w3.org/2000/svg">
<path d="M4.64299 7.09835C4.40487 5.5271 5.51362 4.11335 7.20737 3.5946C7.5081 3.50256 7.83262 3.52871 8.11473 3.66774C8.39684 3.80676 8.61528 4.04817 8.72549 4.34273L9.26862 5.79273C9.35594 6.02597 9.3716 6.27998 9.31358 6.52218C9.25556 6.76439 9.12652 6.98374 8.94299 7.1521L7.32737 8.63398C7.24754 8.70707 7.18806 8.79964 7.15475 8.90263C7.12145 9.00561 7.11546 9.11548 7.13737 9.22148L7.15174 9.28648L7.19174 9.4496C7.22737 9.5871 7.28112 9.78085 7.35674 10.0121C7.50674 10.4715 7.74612 11.089 8.10237 11.7059C8.45862 12.3227 8.87362 12.839 9.19612 13.1984C9.36422 13.3853 9.53978 13.5655 9.72237 13.7384L9.77237 13.7846C9.85318 13.8562 9.95115 13.9056 10.0567 13.928C10.1623 13.9505 10.2719 13.9452 10.3749 13.9127L12.4661 13.2546C12.7037 13.1799 12.9582 13.1779 13.197 13.2488C13.4357 13.3198 13.6478 13.4604 13.8061 13.6527L14.7955 14.854C15.208 15.354 15.1592 16.089 14.6849 16.5309C13.3886 17.739 11.6061 17.9871 10.3661 16.9896C8.84657 15.7634 7.56529 14.2683 6.58612 12.579C5.59975 10.8902 4.94054 9.0313 4.64299 7.09835ZM8.44674 9.30335L9.78799 8.07335C10.155 7.73662 10.4131 7.29792 10.5292 6.81352C10.6452 6.32911 10.6139 5.82109 10.4392 5.3546L9.89549 3.9046C9.67366 3.31218 9.23425 2.82666 8.66683 2.54702C8.0994 2.26737 7.44669 2.21465 6.84174 2.3996C4.73862 3.04398 3.04987 4.9296 3.40737 7.28523C3.72828 9.37392 4.44009 11.3834 5.50549 13.2084C6.56162 15.0301 7.94352 16.6423 9.58237 17.9646C11.4417 19.4584 13.9255 18.949 15.5374 17.4459C15.9988 17.0161 16.2789 16.4265 16.3204 15.7973C16.3618 15.1681 16.1616 14.5468 15.7605 14.0602L14.7711 12.859C14.4545 12.4742 14.0302 12.1929 13.5525 12.051C13.0749 11.9091 12.5658 11.9132 12.0905 12.0627L10.3549 12.609C10.2772 12.5291 10.2011 12.4476 10.1267 12.3646C9.76992 11.9701 9.45432 11.5401 9.18487 11.0815C8.92225 10.6187 8.7076 10.1304 8.54424 9.62398C8.50955 9.51799 8.47704 9.4113 8.44674 9.30398" fill="white"/>
</svg>
