<svg width="13" height="13" viewBox="0 0 13 13" fill="none" xmlns="http://www.w3.org/2000/svg">
<path d="M3.31821 1.29898V0.433594M9.08744 1.29898V0.433594M0.433594 4.18359H11.9721M0.433594 5.91436C0.433594 3.73865 0.433594 2.6508 1.1095 1.97488C1.78541 1.29898 2.87326 1.29898 5.04898 1.29898H7.35667C9.53236 1.29898 10.6203 1.29898 11.2961 1.97488C11.9721 2.6508 11.9721 3.73865 11.9721 5.91436V7.06821C11.9721 9.2439 11.9721 10.3318 11.2961 11.0077C10.6203 11.6836 9.53236 11.6836 7.35667 11.6836H5.04898C2.87326 11.6836 1.78541 11.6836 1.1095 11.0077C0.433594 10.3318 0.433594 9.2439 0.433594 7.06821V5.91436ZM9.66436 8.51052C9.66436 8.98846 9.27692 9.3759 8.79898 9.3759C8.32104 9.3759 7.93359 8.98846 7.93359 8.51052C7.93359 8.03258 8.32104 7.64513 8.79898 7.64513C9.27692 7.64513 9.66436 8.03258 9.66436 8.51052Z" stroke="#888888" stroke-width="0.865385" stroke-linecap="round"/>
</svg>
