<svg width="22" height="22" viewBox="0 0 22 22" fill="none" xmlns="http://www.w3.org/2000/svg">
<path fill-rule="evenodd" clip-rule="evenodd" d="M11 22C5.81455 22 3.22182 22 1.61092 20.389C-1.3113e-07 18.7782 0 16.1854 0 11C0 5.81455 -1.3113e-07 3.22182 1.61092 1.61092C3.22182 -1.3113e-07 5.81455 0 11 0C16.1854 0 18.7782 -1.3113e-07 20.389 1.61092C22 3.22182 22 5.81455 22 11C22 16.1854 22 18.7782 20.389 20.389C18.7782 22 16.1854 22 11 22ZM11 6.325C10.3166 6.325 9.7625 6.87905 9.7625 7.5625C9.7625 8.01813 9.39312 8.3875 8.9375 8.3875C8.48187 8.3875 8.1125 8.01813 8.1125 7.5625C8.1125 5.96778 9.40533 4.675 11 4.675C12.5947 4.675 13.8875 5.96778 13.8875 7.5625C13.8875 8.34442 13.5757 9.0552 13.0713 9.5744C12.9698 9.67879 12.873 9.77559 12.7806 9.86788C12.5432 10.105 12.3352 10.3128 12.1527 10.5473C11.9118 10.8569 11.825 11.0845 11.825 11.275V12.1C11.825 12.5556 11.4556 12.925 11 12.925C10.5444 12.925 10.175 12.5556 10.175 12.1V11.275C10.175 10.5543 10.5105 9.97084 10.8506 9.53392C11.1022 9.21063 11.4184 8.89493 11.6752 8.63881C11.7526 8.56153 11.8246 8.48968 11.8877 8.42465C12.1051 8.20097 12.2375 7.89804 12.2375 7.5625C12.2375 6.87905 11.6834 6.325 11 6.325ZM11 16.5C11.6075 16.5 12.1 16.0075 12.1 15.4C12.1 14.7925 11.6075 14.3 11 14.3C10.3925 14.3 9.9 14.7925 9.9 15.4C9.9 16.0075 10.3925 16.5 11 16.5Z" fill="#37A755"/>
</svg>
