<svg width="3" height="12" viewBox="0 0 3 12" fill="none" xmlns="http://www.w3.org/2000/svg">
<path d="M1.33333 2.66667C0.596934 2.66667 3.75785e-07 2.06971 4.07974e-07 1.33333C4.40162e-07 0.596953 0.596934 -3.21891e-08 1.33333 0C2.06973 3.21891e-08 2.66667 0.596953 2.66667 1.33333C2.66667 2.06971 2.06973 2.66667 1.33333 2.66667Z" fill="#DDDDDD"/>
<path d="M1.33333 7.33333C0.596934 7.33333 1.71798e-07 6.7364 2.03987e-07 6C2.36176e-07 5.2636 0.596934 4.66667 1.33333 4.66667C2.06973 4.66667 2.66667 5.2636 2.66667 6C2.66667 6.7364 2.06973 7.33333 1.33333 7.33333Z" fill="#DDDDDD"/>
<path d="M1.33333 12C0.596933 12 -3.21891e-08 11.4031 0 10.6667C3.21891e-08 9.93027 0.596933 9.33333 1.33333 9.33333C2.06973 9.33333 2.66667 9.93027 2.66667 10.6667C2.66667 11.4031 2.06973 12 1.33333 12Z" fill="#DDDDDD"/>
</svg>
