<svg width="24" height="20" viewBox="0 0 24 20" fill="none" xmlns="http://www.w3.org/2000/svg">
<path fill-rule="evenodd" clip-rule="evenodd" d="M21.8296 5.71832C21.7648 5.71424 21.6943 5.71426 21.6213 5.71429L18.7361 5.7143C16.373 5.7143 14.3511 7.57437 14.3511 10C14.3511 12.4256 16.373 14.2857 18.7361 14.2857H21.6213C21.6943 14.2857 21.7648 14.2858 21.8296 14.2817C22.7895 14.221 23.6383 13.4699 23.7097 12.4208C23.7144 12.352 23.7143 12.2778 23.7143 12.2091V7.79088C23.7143 7.72215 23.7144 7.64799 23.7097 7.5792C23.6383 6.53007 22.7895 5.77894 21.8296 5.71832ZM18.4819 11.1429C19.0903 11.1429 19.5834 10.6312 19.5834 10C19.5834 9.3688 19.0903 8.85714 18.4819 8.85714C17.8736 8.85714 17.3803 9.3688 17.3803 10C17.3803 10.6312 17.8736 11.1429 18.4819 11.1429Z" fill="#37A755"/>
<path fill-rule="evenodd" clip-rule="evenodd" d="M21.6205 16C21.7909 15.9955 21.9199 16.1534 21.8736 16.3175C21.6442 17.1317 21.28 17.8257 20.6958 18.4101C19.8405 19.2653 18.7559 19.6448 17.416 19.825C16.1141 20 14.4505 20 12.3502 20H9.93554C7.83523 20 6.17165 20 4.86969 19.825C3.52978 19.6448 2.44527 19.2653 1.58999 18.4101C0.73472 17.5547 0.355155 16.4702 0.175018 15.1303C-3.36919e-05 13.8283 -2.23392e-05 12.1648 5.17898e-07 10.0645V9.93554C-2.23392e-05 7.83523 -3.36919e-05 6.17165 0.175018 4.86969C0.355155 3.52978 0.73472 2.44527 1.58999 1.58999C2.44527 0.734721 3.52978 0.355155 4.86969 0.175018C6.17165 -3.3692e-05 7.83522 -2.23392e-05 9.93554 5.17896e-07H12.3502C14.4505 -2.23392e-05 16.1141 -3.3692e-05 17.416 0.175018C18.7559 0.355155 19.8405 0.734721 20.6958 1.58999C21.28 2.17431 21.6441 2.86827 21.8736 3.68249C21.9199 3.84657 21.7909 4.00442 21.6205 4L18.736 4.00001C15.4942 4.00001 12.6367 6.56104 12.6367 10C12.6367 13.439 15.4942 16 18.736 16H21.6205ZM4.28571 4.57143C3.81233 4.57143 3.42857 4.95519 3.42857 5.42857C3.42857 5.90195 3.81233 6.28571 4.28571 6.28571H8.85714C9.33051 6.28571 9.71428 5.90195 9.71428 5.42857C9.71428 4.95519 9.33051 4.57143 8.85714 4.57143H4.28571Z" fill="#37A755"/>
</svg>
