<svg width="18" height="15" viewBox="0 0 18 15" fill="none" xmlns="http://www.w3.org/2000/svg">
<path fill-rule="evenodd" clip-rule="evenodd" d="M16.4468 4.28935C16.3935 4.28608 16.3354 4.2861 16.2752 4.28612L13.8981 4.28613C11.9512 4.28613 10.2854 5.77417 10.2854 7.71468C10.2854 9.65516 11.9512 11.1432 13.8981 11.1432H16.2752C16.3354 11.1432 16.3935 11.1432 16.4468 11.14C17.2376 11.0916 17.9371 10.4906 17.9959 9.6513C17.9997 9.59627 17.9996 9.53696 17.9996 9.48201V5.94739C17.9996 5.8924 17.9997 5.83308 17.9959 5.77804C17.9371 4.93874 17.2376 4.33784 16.4468 4.28935ZM13.6887 8.62899C14.19 8.62899 14.5963 8.21962 14.5963 7.71468C14.5963 7.20974 14.19 6.80037 13.6887 6.80037C13.1875 6.80037 12.7812 7.20974 12.7812 7.71468C12.7812 8.21962 13.1875 8.62899 13.6887 8.62899Z" fill="#7C3E1E"/>
<path d="M16.4051 4.287C16.4051 3.27505 16.3684 2.18954 15.7215 1.41135C15.659 1.33623 15.5926 1.26329 15.5218 1.19249C14.8803 0.551038 14.0669 0.266365 13.062 0.131263C12.0855 -2.55224e-05 10.8378 -8.43121e-06 9.26259 1.40182e-07H7.45163C5.8764 -8.43121e-06 4.62872 -2.55224e-05 3.65225 0.131263C2.64733 0.266365 1.83394 0.551038 1.19249 1.19249C0.551038 1.83394 0.266365 2.64733 0.131263 3.65225C-2.55224e-05 4.62872 -8.43121e-06 5.87639 1.40182e-07 7.45163V7.54831C-8.43121e-06 9.12356 -2.55224e-05 10.3712 0.131263 11.3477C0.266365 12.3526 0.551038 13.166 1.19249 13.8075C1.83394 14.4489 2.64733 14.7335 3.65225 14.8687C4.62871 14.9999 5.87638 14.9999 7.45154 14.9999H9.26259C10.8378 14.9999 12.0855 14.9999 13.062 14.8687C14.0669 14.7335 14.8803 14.4489 15.5218 13.8075C15.6971 13.6321 15.8459 13.4437 15.9725 13.2416C16.3586 12.6249 16.4051 11.8691 16.4051 11.1415C16.3638 11.1428 16.3203 11.1428 16.2755 11.1428L13.8981 11.1432C11.9512 11.1432 10.2854 9.65516 10.2854 7.71468C10.2854 5.77417 11.9512 4.28613 13.8981 4.28613L16.2752 4.28612C16.3199 4.2861 16.3638 4.28567 16.4051 4.287Z" fill="#AA5D24"/>
<path d="M3.21431 3.42901C2.85927 3.42901 2.57145 3.71683 2.57145 4.07187C2.57145 4.4269 2.85927 4.71472 3.21431 4.71472H6.64287C6.9979 4.71472 7.28572 4.4269 7.28572 4.07187C7.28572 3.71683 6.9979 3.42901 6.64287 3.42901H3.21431Z" fill="#7C3E1E"/>
<path d="M7.74946 15L7.45154 14.9999C6.82111 14.9999 6.24309 14.9996 5.71396 14.9912V13.5238H7.74946V15Z" fill="#7C3E1E"/>
<path d="M10.294 11.9411L8.05506 13.4692V12.9778L4.39061 13.0329C3.83091 13.142 3.42402 13.633 3.42393 14.0695V14.8343C2.5481 14.6913 1.82619 14.4144 1.24247 13.8548C1.3685 11.7411 2.99932 11.0125 3.67807 10.9592L8.05506 10.8498V10.3588L10.294 11.9411Z" fill="#7C3E1E"/>
<path d="M3.27073 10.3588C2.14661 10.3587 1.23531 9.38113 1.23523 8.17575V7.46361C1.25246 7.446 1.27048 7.42912 1.28791 7.41174H3.27073V10.3588Z" fill="#7C3E1E"/>
<path d="M7.74946 10.3588H5.71396V7.41174H7.74946V10.3588Z" fill="#7C3E1E"/>
</svg>
