<svg width="25" height="24" viewBox="0 0 25 24" fill="none" xmlns="http://www.w3.org/2000/svg">
<path d="M10.25 18L14.25 18" stroke="black" stroke-width="2" stroke-linecap="round" stroke-linejoin="round"/>
<path d="M2.60139 13.2135C2.24837 10.9162 2.07186 9.76763 2.50617 8.74938C2.94047 7.73112 3.90403 7.03443 5.83114 5.64106L7.27099 4.6C9.66829 2.86667 10.8669 2 12.25 2C13.6331 2 14.8317 2.86667 17.229 4.6L18.6689 5.64106C20.596 7.03443 21.5595 7.73112 21.9938 8.74938C22.4281 9.76763 22.2516 10.9162 21.8986 13.2135L21.5976 15.1724C21.0971 18.4289 20.8469 20.0572 19.679 21.0286C18.5111 22 16.8037 22 13.3888 22H11.1112C7.69633 22 5.98891 22 4.821 21.0286C3.65309 20.0572 3.40287 18.4289 2.90243 15.1724L2.60139 13.2135Z" stroke="black" stroke-width="2" stroke-linejoin="round"/>
</svg>
