<svg width="8" height="9" viewBox="0 0 8 9" fill="none" xmlns="http://www.w3.org/2000/svg">
<path fill-rule="evenodd" clip-rule="evenodd" d="M4 8.5C6.20912 8.5 8 6.70912 8 4.5C8 2.29086 6.20912 0.5 4 0.5C1.79086 0.5 0 2.29086 0 4.5C0 6.70912 1.79086 8.5 4 8.5ZM6.38144 4.79996H5.1622C5.107 5.01444 4.994 5.20576 4.84076 5.35624L5.45048 6.41228C5.95236 6.031 6.29956 5.45668 6.38144 4.79996ZM4.93108 6.71272L4.32128 5.65652C4.21904 5.68484 4.11128 5.7 4 5.7C3.88872 5.7 3.78096 5.68484 3.67868 5.65648L3.06888 6.71268C3.3552 6.83332 3.6698 6.9 4 6.9C4.3302 6.9 4.6448 6.83332 4.93108 6.71272ZM2.54952 6.41224L3.15922 5.3562C3.006 5.20572 2.89299 5.01444 2.83779 4.79996H1.61856C1.70044 5.45668 2.04764 6.031 2.54952 6.41224ZM6.38144 4.19996H5.1622C5.10696 3.98548 4.99396 3.7942 4.84072 3.64375L5.45044 2.58771C5.95232 2.96896 6.29952 3.54326 6.38144 4.19996ZM4.93108 2.28729C4.64476 2.16667 4.33016 2.1 4 2.1C3.66984 2.1 3.3552 2.16668 3.06891 2.2873L3.67872 3.3435C3.78096 3.31515 3.88872 3.3 4 3.3C4.11128 3.3 4.219 3.31515 4.32128 3.34349L4.93108 2.28729ZM3.15925 3.64377L2.54954 2.58772C2.04768 2.96898 1.70048 3.54326 1.61858 4.19996H2.83782C2.89303 3.98548 3.00604 3.79424 3.15925 3.64377Z" fill="white"/>
</svg>
