<svg width="17" height="30" viewBox="0 0 17 30" fill="none" xmlns="http://www.w3.org/2000/svg">
<circle cx="8.4375" cy="21.5625" r="8.4375" fill="#37A755" fill-opacity="0.2"/>
<circle cx="8.43945" cy="21.562" r="3.75" fill="#37A755"/>
<path d="M8.4375 0.46875C12.8385 0.46875 16.4062 4.03648 16.4062 8.4375V8.84863C16.4062 10.7514 15.7589 12.5982 14.5703 14.084L8.4375 21.749L2.30469 14.084C1.11609 12.5982 0.46875 10.7514 0.46875 8.84863V8.4375C0.46875 4.03648 4.03648 0.46875 8.4375 0.46875ZM8.4375 5.15625C6.62531 5.15625 5.15625 6.62531 5.15625 8.4375C5.15625 10.2497 6.62531 11.7188 8.4375 11.7188C10.2497 11.7188 11.7188 10.2497 11.7188 8.4375C11.7188 6.62531 10.2497 5.15625 8.4375 5.15625Z" fill="#37A755" stroke="white" stroke-width="0.9375"/>
</svg>
