<svg width="22" height="24" viewBox="0 0 22 24" fill="none" xmlns="http://www.w3.org/2000/svg">
<path d="M14.4 24C12.976 24 11.5839 23.5777 10.3999 22.7866C9.21586 21.9954 8.29302 20.8709 7.74807 19.5553C7.20312 18.2397 7.06053 16.792 7.33835 15.3954C7.61616 13.9987 8.30189 12.7158 9.30883 11.7088C10.3158 10.7019 11.5987 10.0162 12.9954 9.73835C14.392 9.46053 15.8397 9.60312 17.1553 10.1481C18.4709 10.693 19.5954 11.6159 20.3866 12.7999C21.1777 13.9839 21.6 15.376 21.6 16.8C21.6 18.7096 20.8414 20.5409 19.4912 21.8912C18.1409 23.2414 16.3096 24 14.4 24ZM6.6 8.2284C10.2456 8.2284 13.2 6.3864 13.2 4.1148C13.2 1.8432 10.2456 0 6.6 0C2.9544 0 0 1.842 0 4.1148C0 6.3876 2.9544 8.2284 6.6 8.2284ZM5.6076 12.96C6.01722 12.0311 6.57128 11.1729 7.2492 10.4172C7.0332 10.4304 6.822 10.4568 6.6 10.4568C2.9544 10.4568 0 8.6148 0 6.3432V8.9136C0 10.974 2.4384 12.6588 5.6076 12.96ZM4.9668 18.5472C4.85816 17.9711 4.80233 17.3863 4.8 16.8C4.8 16.512 4.818 16.2276 4.8432 15.9456C2.0544 15.4668 0 13.8912 0 12V14.5716C0 16.4904 2.1144 18.0924 4.9668 18.5472ZM6.6 24C7.03284 23.9997 7.46525 23.9728 7.8948 23.9196C7.5977 23.6406 7.32733 23.3345 7.0872 23.0052C6.66189 22.5063 6.28837 21.9656 5.9724 21.3912C2.6256 21.192 0 19.4532 0 17.3148V19.8852C0 22.158 2.9544 24 6.6 24Z" fill="#37A755"/>
</svg>
