<svg width="25" height="25" viewBox="0 0 25 25" fill="none" xmlns="http://www.w3.org/2000/svg">
<path d="M8.35 10.85H17.15M8.35 14.7H14.4M12.75 23.5C18.8251 23.5 23.75 18.5751 23.75 12.5C23.75 6.42486 18.8251 1.5 12.75 1.5C6.67486 1.5 1.75 6.42486 1.75 12.5C1.75 14.2597 2.16318 15.9228 2.89781 17.3977C3.09303 17.7897 3.15801 18.2377 3.04483 18.6607L2.38966 21.1094C2.10525 22.1723 3.07771 23.1447 4.14068 22.8604L6.58933 22.2052C7.01232 22.092 7.46033 22.157 7.85228 22.3521C9.32721 23.0868 10.9903 23.5 12.75 23.5Z" stroke="#7B7B7B" stroke-width="1.7" stroke-linecap="round"/>
</svg>
