<svg width="14" height="22" viewBox="0 0 14 22" fill="none" xmlns="http://www.w3.org/2000/svg">
<ellipse cx="7" cy="19.7422" rx="5" ry="1.5" fill="#CDE9D4"/>
<path d="M7 1.00781C10.7238 1.00781 13.75 4.08166 13.75 7.88281V8.23047C13.75 9.87161 13.2008 11.4636 12.1943 12.7441L7 19.3535L1.80566 12.7441C0.799183 11.4636 0.250027 9.87161 0.25 8.23047V7.88281C0.25 4.08166 3.27623 1.00781 7 1.00781ZM7 5.25781C5.56911 5.25781 4.41699 6.43725 4.41699 7.88281C4.41699 9.32837 5.56911 10.5078 7 10.5078C8.43089 10.5078 9.58301 9.32837 9.58301 7.88281C9.58301 6.43725 8.43089 5.25781 7 5.25781Z" fill="#37A755" stroke="white" stroke-width="0.5"/>
</svg>
