<svg width="40" height="41" viewBox="0 0 40 41" fill="none" xmlns="http://www.w3.org/2000/svg">
<rect y="0.5" width="40" height="40" rx="8" fill="#EAF6ED"/>
<path d="M16.7969 18.9H23.1969M16.7969 22.1H20.7969M12.7969 18.9C12.7969 15.883 12.7969 14.3745 13.7341 13.4373C14.6714 12.5 16.1799 12.5 19.1969 12.5H20.7969C23.8138 12.5 25.3224 12.5 26.2596 13.4373C27.1969 14.3745 27.1969 15.883 27.1969 18.9V22.1C27.1969 25.117 27.1969 26.6255 26.2596 27.5627C25.3224 28.5 23.8138 28.5 20.7969 28.5H19.1969C16.1799 28.5 14.6714 28.5 13.7341 27.5627C12.7969 26.6255 12.7969 25.117 12.7969 22.1V18.9Z" stroke="#37A755" stroke-width="1.4" stroke-linecap="round"/>
</svg>
