<svg width="40" height="41" viewBox="0 0 40 41" fill="none" xmlns="http://www.w3.org/2000/svg">
<rect y="0.5" width="40" height="40" rx="8" fill="#EAF6ED"/>
<path d="M11.5 20.5C11.5 16.4931 11.5 14.4896 12.7448 13.2448C13.9896 12 15.9931 12 20 12C24.0069 12 26.0104 12 27.2552 13.2448C28.5 14.4896 28.5 16.4931 28.5 20.5C28.5 24.5069 28.5 26.5104 27.2552 27.7552C26.0104 29 24.0069 29 20 29C15.9931 29 13.9896 29 12.7448 27.7552C11.5 26.5104 11.5 24.5069 11.5 20.5Z" stroke="#37A755" stroke-width="1.4"/>
<path d="M18.4062 17.8438C18.4062 16.9635 19.1198 16.25 20 16.25C20.8802 16.25 21.5938 16.9635 21.5938 17.8438C21.5938 18.4281 21.2792 18.939 20.8104 19.2164C20.4063 19.4554 20 19.818 20 20.2875V21.35" stroke="#37A755" stroke-width="1.4" stroke-linecap="round"/>
<path d="M19.998 23.751C20.0808 23.751 20.1482 23.8177 20.1484 23.9004C20.1484 23.9832 20.0809 24.0508 19.998 24.0508C19.9154 24.0506 19.8486 23.9831 19.8486 23.9004C19.8488 23.8179 19.9155 23.7512 19.998 23.751Z" fill="#37A755" stroke="#37A755" stroke-width="1.4"/>
</svg>
