<svg width="40" height="41" viewBox="0 0 40 41" fill="none" xmlns="http://www.w3.org/2000/svg">
<rect y="0.5" width="40" height="40" rx="8" fill="#EAF6ED"/>
<path d="M18.3 23.75H14.9M21.7 23.75H20.425M11.5 18.875H28.5M11.5 20.5C11.5 17.4359 11.5 15.9038 12.4958 14.9519C13.4917 14 15.0944 14 18.3 14H21.7C24.9055 14 26.5084 14 27.5041 14.9519C28.5 15.9038 28.5 17.4359 28.5 20.5C28.5 23.5641 28.5 25.0962 27.5041 26.0481C26.5084 27 24.9055 27 21.7 27H18.3C15.0944 27 13.4917 27 12.4958 26.0481C11.5 25.0962 11.5 23.5641 11.5 20.5Z" stroke="#37A755" stroke-width="1.4" stroke-linecap="round"/>
</svg>
