<svg width="40" height="41" viewBox="0 0 40 41" fill="none" xmlns="http://www.w3.org/2000/svg">
<rect y="0.5" width="40" height="40" rx="8" fill="#EAF6ED"/>
<path d="M17.7225 15.2267C18.7358 13.4089 19.2425 12.5 20 12.5C20.7575 12.5 21.2641 13.4089 22.2774 15.2267L22.5396 15.697C22.8276 16.2135 22.9715 16.4718 23.1961 16.6423C23.4205 16.8127 23.7001 16.8759 24.2593 17.0024L24.7684 17.1176C26.7361 17.5629 27.72 17.7855 27.9541 18.5382C28.1881 19.2909 27.5174 20.0753 26.1759 21.6439L25.8289 22.0498C25.4477 22.4955 25.257 22.7184 25.1713 22.9942C25.0856 23.2699 25.1144 23.5673 25.172 24.1621L25.2245 24.7035C25.4273 26.7965 25.5287 27.843 24.9159 28.3082C24.303 28.7734 23.3818 28.3492 21.5394 27.501L21.0628 27.2815C20.5393 27.0404 20.2775 26.9199 20 26.9199C19.7225 26.9199 19.4607 27.0404 18.9372 27.2815L18.4606 27.501C16.6181 28.3492 15.6969 28.7734 15.0841 28.3082C14.4713 27.843 14.5727 26.7965 14.7755 24.7035L14.828 24.1621C14.8856 23.5673 14.9144 23.2699 14.8287 22.9942C14.7429 22.7184 14.5523 22.4955 14.1711 22.0498L13.8241 21.6439C12.4826 20.0753 11.8119 19.2909 12.0459 18.5382C12.28 17.7855 13.2639 17.5629 15.2316 17.1176L15.7407 17.0024C16.2999 16.8759 16.5795 16.8127 16.8039 16.6423C17.0284 16.4718 17.1724 16.2136 17.4604 15.697L17.7225 15.2267Z" stroke="#37A755" stroke-width="1.5"/>
</svg>
