<svg width="21" height="21" viewBox="0 0 21 21" fill="none" xmlns="http://www.w3.org/2000/svg">
<path d="M10.3984 5.58154V8.46754" stroke="#666666" stroke-width="1.6" stroke-miterlimit="10" stroke-linecap="round"/>
<path d="M10.4159 1.7334C7.22655 1.7334 4.64388 4.31607 4.64388 7.5054V9.3254C4.64388 9.91473 4.40121 10.7987 4.09788 11.3014L2.99721 13.1387C2.32121 14.2741 2.78921 15.5394 4.03721 15.9554C8.17988 17.3334 12.6605 17.3334 16.8032 15.9554C17.9732 15.5654 18.4759 14.1961 17.8432 13.1387L16.7425 11.3014C16.4392 10.7987 16.1965 9.90607 16.1965 9.3254V7.5054C16.1879 4.3334 13.5879 1.7334 10.4159 1.7334Z" stroke="#666666" stroke-width="1.6" stroke-miterlimit="10" stroke-linecap="round"/>
<path d="M13.2876 16.3105C13.2876 17.8965 11.9876 19.1965 10.4016 19.1965C9.61296 19.1965 8.88496 18.8672 8.36496 18.3472C7.84496 17.8272 7.51562 17.0992 7.51562 16.3105" stroke="#666666" stroke-width="1.6" stroke-miterlimit="10"/>
</svg>
