<svg width="40" height="41" viewBox="0 0 40 41" fill="none" xmlns="http://www.w3.org/2000/svg">
<rect y="0.5" width="40" height="40" rx="8" fill="#EAF6ED"/>
<path d="M15.336 17.9415H20.0002M15.919 21.051H19.4171M27.7738 15.6094V17.4906C27.7738 18.7189 26.9964 19.4962 25.7682 19.4962H23.1096V14.0625C23.1096 13.1996 23.817 12.5 24.6799 12.5C25.5272 12.5078 26.3045 12.8498 26.8642 13.4095C27.4239 13.977 27.7738 14.7543 27.7738 15.6094ZM12.2266 27.2698C12.2266 27.915 12.9573 28.2804 13.4703 27.8917L14.7996 26.8967C15.1106 26.6635 15.5459 26.6946 15.8257 26.9744L17.1161 28.2726C17.4193 28.5758 17.9168 28.5758 18.22 28.2726L19.526 26.9667C19.798 26.6946 20.2334 26.6635 20.5365 26.8967L21.8658 27.8917C22.3789 28.2726 23.1096 27.9073 23.1096 27.2698V14.0547C23.1096 13.1996 23.8092 12.5 24.6643 12.5H15.336C13.0039 12.5 12.2266 13.8915 12.2266 15.6094V27.2698Z" stroke="#37A755" stroke-width="1.4" stroke-linecap="round" stroke-linejoin="round"/>
</svg>
