<svg width="24" height="24" viewBox="0 0 24 24" fill="none" xmlns="http://www.w3.org/2000/svg">
<path d="M10.3677 15.1166C10.1789 15.1023 10.0035 15.0144 9.87867 14.8721L6.94466 11.9381C6.87929 11.8013 6.85796 11.6475 6.88361 11.498C6.90927 11.3485 6.98063 11.2107 7.08789 11.1034C7.19515 10.9961 7.33302 10.9247 7.48251 10.8991C7.63201 10.8735 7.78579 10.8948 7.92266 10.9601L10.3384 13.3758L18.6807 5.09212C18.8176 5.02675 18.9714 5.00542 19.1208 5.03107C19.2704 5.05673 19.4083 5.12809 19.5155 5.23535C19.6227 5.34261 19.6941 5.48048 19.7198 5.62997C19.7454 5.77948 19.7241 5.93325 19.6587 6.07013L10.8567 14.8721C10.7319 15.0144 10.5564 15.1023 10.3677 15.1166Z" fill="#37A755"/>
<path d="M11.8351 20.7403C10.262 20.7378 8.71823 20.3137 7.36458 19.5123C6.01093 18.7107 4.89683 17.561 4.13822 16.1828C3.56157 15.1559 3.20518 14.0202 3.09176 12.8478C2.91276 11.1286 3.24395 9.39472 4.04398 7.86247C4.84403 6.33022 6.07752 5.06744 7.59058 4.23167C8.6175 3.65502 9.75329 3.29862 10.9256 3.1852C12.0934 3.05957 13.2746 3.1727 14.3975 3.51772C14.4976 3.53774 14.5926 3.57848 14.6761 3.63732C14.7596 3.69616 14.83 3.77181 14.8826 3.85942C14.9352 3.94702 14.9689 4.04465 14.9817 4.14605C14.9943 4.24744 14.9857 4.35037 14.9562 4.44823C14.9268 4.54609 14.8772 4.63672 14.8107 4.7143C14.7442 4.7919 14.6622 4.85474 14.5701 4.8988C14.4779 4.94287 14.3774 4.96718 14.2753 4.97019C14.1732 4.9732 14.0715 4.95483 13.977 4.91627C13.0269 4.63061 12.0295 4.53751 11.0429 4.64243C10.0679 4.74227 9.12306 5.03834 8.2654 5.51285C7.43911 5.9687 6.70855 6.57971 6.11379 7.31238C5.50142 8.05875 5.04414 8.91981 4.76872 9.84512C4.49332 10.7705 4.40531 11.7414 4.50987 12.7011C4.60971 13.6762 4.90579 14.6211 5.38029 15.4787C5.83614 16.305 6.44714 17.0356 7.17982 17.6303C7.92619 18.2427 8.78724 18.6999 9.71256 18.9753C10.6379 19.2507 11.6088 19.3388 12.5686 19.2342C13.5437 19.1344 14.4885 18.8383 15.3462 18.3638C16.1725 17.9079 16.9029 17.297 17.4978 16.5643C18.1101 15.8179 18.5674 14.9568 18.8428 14.0315C19.1182 13.1062 19.2062 12.1353 19.1017 11.1755C19.092 11.0746 19.1024 10.9729 19.132 10.8761C19.1617 10.7793 19.2102 10.6892 19.2747 10.6112C19.3392 10.533 19.4184 10.4684 19.5079 10.4209C19.5973 10.3734 19.6952 10.3441 19.7961 10.3344C19.8969 10.3248 19.9986 10.3351 20.0954 10.3648C20.1923 10.3944 20.2823 10.4429 20.3604 10.5074C20.4385 10.5718 20.5032 10.6512 20.5506 10.7405C20.5981 10.83 20.6275 10.9279 20.6372 11.0288C20.8153 12.7491 20.4826 14.4837 19.6808 16.0161C18.8789 17.5484 17.6434 18.8106 16.1286 19.645C15.0907 20.2453 13.9373 20.6186 12.7447 20.7403C12.4415 20.7403 12.1285 20.7403 11.8351 20.7403Z" fill="#37A755"/>
</svg>
