<svg width="26" height="26" viewBox="0 0 26 26" fill="none" xmlns="http://www.w3.org/2000/svg">
<path d="M26 13C26 15.5712 25.2376 18.0846 23.8091 20.2224C22.3806 22.3602 20.3503 24.0265 17.9749 25.0104C15.5994 25.9944 12.9856 26.2518 10.4638 25.7502C7.94208 25.2486 5.6257 24.0105 3.80762 22.1924C1.98953 20.3743 0.751405 18.0579 0.249797 15.5362C-0.251811 13.0144 0.00563269 10.4006 0.989572 8.02511C1.97351 5.64967 3.63975 3.61935 5.77759 2.19089C7.91543 0.762437 10.4288 0 13 0C14.7072 0 16.3977 0.336255 17.9749 0.989566C19.5521 1.64288 20.9852 2.60045 22.1924 3.80761C23.3995 5.01477 24.3571 6.44788 25.0104 8.02511C25.6637 9.60235 26 11.2928 26 13ZM21.4236 13.0985C21.4228 11.6381 21.0382 10.2035 20.3084 8.9385C19.5787 7.67347 18.5293 6.6224 17.2655 5.89055C16.0017 5.1587 14.5678 4.77176 13.1073 4.76849C11.6469 4.76522 10.2113 5.14573 8.94417 5.87192C8.17505 6.31523 7.48114 6.87778 6.88835 7.53859V6.41051C6.88835 6.23805 6.81984 6.07266 6.69789 5.95071C6.57595 5.82877 6.41056 5.76026 6.2381 5.76026C6.06564 5.76026 5.90025 5.82877 5.77831 5.95071C5.65636 6.07266 5.58785 6.23805 5.58785 6.41051V9.13629C5.58829 9.30846 5.65699 9.47343 5.77889 9.59502C5.90078 9.71661 6.06593 9.78489 6.2381 9.78489H8.9606C9.12718 9.77651 9.28418 9.70443 9.39913 9.58356C9.51408 9.46269 9.57818 9.30227 9.57818 9.13547C9.57818 8.96867 9.51408 8.80824 9.39913 8.68737C9.28418 8.5665 9.12718 8.49442 8.9606 8.48604H7.78326C8.44276 7.72546 9.25818 7.11567 10.1742 6.69805C11.0902 6.28043 12.0853 6.06476 13.092 6.06568C14.4825 6.06601 15.8416 6.47861 16.9977 7.25133C18.1537 8.02406 19.0546 9.1222 19.5866 10.4069C20.1186 11.6916 20.2577 13.1052 19.9863 14.469C19.715 15.8328 19.0454 17.0855 18.0621 18.0687C17.0789 19.0519 15.8262 19.7215 14.4624 19.9929C13.0987 20.2642 11.6851 20.1251 10.4004 19.5932C9.11563 19.0612 8.0175 18.1602 7.24477 17.0042C6.47205 15.8482 6.05944 14.489 6.05912 13.0985C6.05912 12.9261 5.99061 12.7607 5.86867 12.6387C5.74672 12.5168 5.58133 12.4483 5.40887 12.4483C5.23642 12.4483 5.07102 12.5168 4.94908 12.6387C4.82713 12.7607 4.75863 12.9261 4.75863 13.0985C4.75863 14.1929 4.97417 15.2765 5.39296 16.2875C5.81175 17.2986 6.42558 18.2173 7.1994 18.9911C7.97322 19.7649 8.89188 20.3787 9.90293 20.7975C10.914 21.2163 11.9976 21.4319 13.092 21.4319C14.1863 21.4319 15.2699 21.2163 16.281 20.7975C17.292 20.3787 18.2107 19.7649 18.9845 18.9911C19.7583 18.2173 20.3722 17.2986 20.791 16.2875C21.2097 15.2765 21.4236 14.1929 21.4236 13.0985ZM13.6026 12.936V8.54844C13.5942 8.38185 13.5222 8.22485 13.4013 8.1099C13.2804 7.99496 13.12 7.93086 12.9532 7.93086C12.7864 7.93086 12.626 7.99496 12.5051 8.1099C12.3842 8.22485 12.3122 8.38185 12.3038 8.54844V13.2135C12.3036 13.3126 12.3261 13.4105 12.3697 13.4996C12.4132 13.5887 12.4766 13.6667 12.555 13.7274L15.0788 16.2496C15.139 16.311 15.2107 16.3598 15.2899 16.3933C15.369 16.4268 15.454 16.4443 15.54 16.4447C15.6259 16.4451 15.7111 16.4285 15.7906 16.3958C15.87 16.3631 15.9423 16.315 16.003 16.2543C16.0638 16.1935 16.1119 16.1213 16.1446 16.0418C16.1773 15.9623 16.1939 15.8771 16.1935 15.7912C16.193 15.7052 16.1756 15.6202 16.1421 15.5411C16.1086 15.4619 16.0597 15.3902 15.9984 15.33L13.6026 12.936Z" fill="#37A755"/>
</svg>
