<svg width="32" height="32" viewBox="0 0 32 32" fill="none" xmlns="http://www.w3.org/2000/svg">
<rect width="32" height="32" rx="8" fill="#37A755" fill-opacity="0.1"/>
<path d="M14.2353 16.0002C14.2353 16.5788 14.0122 17.1338 13.615 17.543C13.2179 17.9521 12.6793 18.182 12.1176 18.182C11.556 18.182 11.0174 17.9521 10.6202 17.543C10.2231 17.1338 10 16.5788 10 16.0002C10 15.4215 10.2231 14.8666 10.6202 14.4574C11.0174 14.0482 11.556 13.8184 12.1176 13.8184C12.6793 13.8184 13.2179 14.0482 13.615 14.4574C14.0122 14.8666 14.2353 15.4215 14.2353 16.0002Z" stroke="#37A755"/>
<path d="M17.7626 10.9102L13.5273 14.1498M17.7626 21.092L13.5273 17.8523" stroke="#37A755" stroke-linecap="round"/>
<path d="M22.0009 21.7778C22.0009 22.3671 21.7778 22.9324 21.3807 23.3491C20.9835 23.7659 20.4449 24 19.8833 24C19.3216 24 18.783 23.7659 18.3859 23.3491C17.9887 22.9324 17.7656 22.3671 17.7656 21.7778C17.7656 21.1884 17.9887 20.6232 18.3859 20.2064C18.783 19.7897 19.3216 19.5556 19.8833 19.5556C20.4449 19.5556 20.9835 19.7897 21.3807 20.2064C21.7778 20.6232 22.0009 21.1884 22.0009 21.7778ZM22.0009 10.2222C22.0009 10.8116 21.7778 11.3768 21.3807 11.7936C20.9835 12.2103 20.4449 12.4444 19.8833 12.4444C19.3216 12.4444 18.783 12.2103 18.3859 11.7936C17.9887 11.3768 17.7656 10.8116 17.7656 10.2222C17.7656 9.63285 17.9887 9.06762 18.3859 8.65087C18.783 8.23413 19.3216 8 19.8833 8C20.4449 8 20.9835 8.23413 21.3807 8.65087C21.7778 9.06762 22.0009 9.63285 22.0009 10.2222Z" stroke="#37A755"/>
</svg>
