<svg width="26" height="26" viewBox="0 0 26 26" fill="none" xmlns="http://www.w3.org/2000/svg">
<path fill-rule="evenodd" clip-rule="evenodd" d="M13.0001 0C20.1798 3.77628e-05 26 5.82023 26 12.9999C26 20.1796 20.1798 26 13.0001 26C5.8204 26 0 20.1796 0 12.9999C3.02102e-05 5.8202 5.82042 0 13.0001 0ZM13.9059 15.743V20.9105H17.7339V15.743H13.9059ZM18.3078 11.0537L10.0779 11.2451C8.77009 11.3408 5.58007 12.6805 5.48437 16.604V20.7189H9.59944V16.6997C9.59944 15.9342 10.3651 15.0728 11.4177 14.8815L18.3078 14.7858V15.647L22.5184 12.9675L18.3078 10.1924V11.0537ZM5.48437 5.02488V6.36444C5.48437 8.47851 7.19828 10.1924 9.31234 10.1924V5.02488H5.48437ZM13.9059 5.02488V10.1924H17.7339V5.02488H13.9059Z" fill="white"/>
</svg>
