<svg width="33" height="30" viewBox="0 0 33 30" fill="none" xmlns="http://www.w3.org/2000/svg">
<path d="M4.96505 23.1218V13.2776M10.5903 23.1218V13.2776M16.2156 23.1218V13.2776M21.8409 23.1218V13.2776M27.4661 23.1218V13.2776M0.746094 28.7471H31.6851M16.7359 0.831449L29.3928 5.89416C29.885 6.09105 30.2788 6.68169 30.2788 7.20202V11.871C30.2788 12.6445 29.6459 13.2773 28.8724 13.2773H3.55873C2.78525 13.2773 2.15241 12.6445 2.15241 11.871V7.20202C2.15241 6.68169 2.54618 6.09105 3.03839 5.89416L15.6952 0.831449C15.9765 0.718944 16.4547 0.718944 16.7359 0.831449ZM30.2788 28.7471H2.15241V24.5281C2.15241 23.7546 2.78525 23.1218 3.55873 23.1218H28.8724C29.6459 23.1218 30.2788 23.7546 30.2788 24.5281V28.7471ZM16.2156 9.76179C17.3806 9.76179 18.3251 8.81735 18.3251 7.65231C18.3251 6.48728 17.3806 5.54284 16.2156 5.54284C15.0506 5.54284 14.1061 6.48728 14.1061 7.65231C14.1061 8.81735 15.0506 9.76179 16.2156 9.76179Z" stroke="#292D32" stroke-width="1.49333" stroke-miterlimit="10" stroke-linecap="round" stroke-linejoin="round"/>
</svg>
