<svg width="31" height="26" viewBox="0 0 31 26" fill="none" xmlns="http://www.w3.org/2000/svg">
<path fill-rule="evenodd" clip-rule="evenodd" d="M30.5 14.4598C30.5 14.4939 30.5 14.5283 30.5 14.5626V17.6876C30.5 17.722 30.5 17.7563 30.5 17.7904C30.5 19.1755 30.5001 20.369 30.3768 21.3247C30.2445 22.3489 29.9465 23.3308 29.1819 24.127C28.4175 24.9234 27.4749 25.2339 26.4917 25.3717C25.5742 25.5001 24.4285 25.5001 23.0987 25.5H13.9013C12.5716 25.5001 11.4258 25.5001 10.5083 25.3717C9.52505 25.2339 8.58252 24.9234 7.81802 24.127C7.05353 23.3308 6.75542 22.3489 6.62322 21.3247C6.49986 20.369 6.49992 19.1755 6.5 17.7904V14.4598C6.49992 13.0747 6.49986 11.8813 6.62322 10.9255C6.75542 9.90128 7.05353 8.9195 7.81802 8.12315C8.58252 7.32682 9.52505 7.01629 10.5083 6.87857C11.4258 6.75009 12.5716 6.75015 13.9013 6.75023H23C23.033 6.75023 23.066 6.75023 23.0987 6.75023C24.4285 6.75015 25.5742 6.75009 26.4917 6.87859C27.4749 7.01629 28.4175 7.32682 29.1819 8.12315C29.9465 8.9195 30.2445 9.90128 30.3768 10.9255C30.5001 11.8813 30.5 13.0747 30.5 14.4598ZM14 16.1251C14 13.5362 16.0148 11.4377 18.5 11.4377C20.9854 11.4377 23 13.5362 23 16.1251C23 18.714 20.9854 20.8125 18.5 20.8125C16.0148 20.8125 14 18.714 14 16.1251Z" fill="#37A755"/>
<path d="M24.4947 5.19374C24.0654 5.18754 23.6241 5.18758 23.1783 5.18765H13.8219C12.5564 5.18751 11.3265 5.18737 10.3086 5.32993C9.15996 5.49078 7.84761 5.88269 6.7575 7.0182C5.6674 8.15372 5.29116 9.52075 5.13674 10.7172C4.99988 11.7775 5 13.0586 5.00014 14.377V17.8729C5.00009 18.3309 5.00005 18.7843 5.00575 19.2256C4.90861 19.2206 4.81468 19.2146 4.72405 19.2073C4.16422 19.1623 3.60626 19.0631 3.06424 18.794C2.13247 18.3315 1.38166 17.5495 0.937658 16.5789C0.679359 16.0142 0.584124 15.4331 0.540924 14.85C0.499974 14.297 0.499989 13.6267 0.500019 12.8499L0.500004 8.2097C0.499929 6.82461 0.499869 5.63114 0.623229 4.67543C0.755423 3.65121 1.05353 2.66943 1.81804 1.87308C2.58253 1.07675 3.52505 0.766219 4.50832 0.628518C5.42581 0.500019 6.57153 0.500082 7.90127 0.50016L19.3085 0.500082C19.9412 0.499504 20.4863 0.499004 20.9712 0.610643C22.6808 1.00428 24.0161 2.3951 24.3939 4.17591C24.4604 4.48884 24.4854 4.82585 24.4947 5.19374Z" fill="#37A755" fill-opacity="0.7"/>
</svg>
