<svg width="25" height="25" viewBox="0 0 25 25" fill="none" xmlns="http://www.w3.org/2000/svg">
<path fill-rule="evenodd" clip-rule="evenodd" d="M12.5 0C19.4035 0 25 5.59644 25 12.5C25 19.4035 19.4035 25 12.5 25C5.59644 25 0 19.4035 0 12.5C0 5.59644 5.59644 0 12.5 0ZM12.5 6.5625C11.9823 6.5625 11.5625 6.98224 11.5625 7.5V12.5C11.5625 12.7486 11.661 12.9873 11.8369 13.1631L14.9619 16.2881C15.328 16.6542 15.922 16.6542 16.2881 16.2881C16.6542 15.922 16.6542 15.328 16.2881 14.9619L13.4375 12.1118V7.5C13.4375 6.98224 13.0177 6.5625 12.5 6.5625Z" fill="#37A755"/>
</svg>
