<svg width="30" height="30" viewBox="0 0 30 30" fill="none" xmlns="http://www.w3.org/2000/svg">
<path d="M7.79688 13.329C7.79688 9.2813 11.0204 6 14.9969 6C18.9734 6 22.1969 9.2813 22.1969 13.329C22.1969 17.345 19.8989 22.0312 16.3135 23.707C15.4778 24.0977 14.516 24.0977 13.6803 23.707C10.0949 22.0312 7.79688 17.345 7.79688 13.329Z" stroke="#747474" stroke-width="1.3"/>
<path d="M14.9969 15.9C16.4881 15.9 17.6969 14.6912 17.6969 13.2C17.6969 11.7088 16.4881 10.5 14.9969 10.5C13.5057 10.5 12.2969 11.7088 12.2969 13.2C12.2969 14.6912 13.5057 15.9 14.9969 15.9Z" stroke="#747474" stroke-width="1.3"/>
</svg>
