<svg width="29" height="29" viewBox="0 0 29 29" fill="none" xmlns="http://www.w3.org/2000/svg">
<rect x="0.5" y="0.484375" width="28" height="28" rx="7" fill="#37A755"/>
<path d="M16.8333 21.9844C15.9104 21.9844 15.0081 21.7205 14.2407 21.226C13.4732 20.7315 12.8751 20.0287 12.5219 19.2065C12.1687 18.3842 12.0763 17.4794 12.2563 16.6065C12.4364 15.7336 12.8809 14.9317 13.5335 14.3024C14.1861 13.6731 15.0177 13.2445 15.9229 13.0708C16.8282 12.8972 17.7665 12.9863 18.6192 13.3269C19.4719 13.6675 20.2007 14.2443 20.7135 14.9843C21.2263 15.7243 21.5 16.5944 21.5 17.4844C21.5 18.6778 21.0083 19.8224 20.1332 20.6664C19.258 21.5103 18.071 21.9844 16.8333 21.9844ZM11.7778 12.1271C14.1407 12.1271 16.0556 10.9759 16.0556 9.55612C16.0556 8.13637 14.1407 6.98438 11.7778 6.98438C9.41489 6.98438 7.5 8.13562 7.5 9.55612C7.5 10.9766 9.41489 12.1271 11.7778 12.1271ZM11.1346 15.0844C11.4001 14.5038 11.7592 13.9674 12.1986 13.4951C12.0586 13.5034 11.9217 13.5199 11.7778 13.5199C9.41489 13.5199 7.5 12.3686 7.5 10.9489V12.5554C7.5 13.8431 9.08044 14.8961 11.1346 15.0844ZM10.7192 18.5764C10.6488 18.2163 10.6126 17.8508 10.6111 17.4844C10.6111 17.3044 10.6228 17.1266 10.6391 16.9504C8.83156 16.6511 7.5 15.6664 7.5 14.4844V16.0916C7.5 17.2909 8.87044 18.2921 10.7192 18.5764ZM11.7778 21.9844C12.0583 21.9842 12.3386 21.9674 12.617 21.9341C12.4244 21.7598 12.2492 21.5684 12.0936 21.3626C11.8179 21.0508 11.5758 20.7129 11.371 20.3539C9.20178 20.2294 7.5 19.1426 7.5 17.8061V19.4126C7.5 20.8331 9.41489 21.9844 11.7778 21.9844Z" fill="white"/>
</svg>
