<svg width="40" height="40" viewBox="0 0 40 40" fill="none" xmlns="http://www.w3.org/2000/svg">
<rect width="40" height="40" rx="8" fill="#EAF6ED"/>
<path d="M11 16L13.7219 18.2682C13.9016 18.418 14.1281 18.5 14.3621 18.5H25.6379C25.8719 18.5 26.0984 18.418 26.2781 18.2682L29 16M14.5 22H14.51M25.5 22H25.51M16.1607 12.5H23.8394C24.5571 12.5 25.2198 12.8846 25.5758 13.5077L28.473 18.5777C28.8183 19.1821 29 19.8661 29 20.5623V26.5C29 27.0523 28.5523 27.5 28 27.5H27C26.4477 27.5 26 27.0523 26 26.5V25.5H14V26.5C14 27.0523 13.5523 27.5 13 27.5H12C11.4477 27.5 11 27.0523 11 26.5V20.5623C11 19.8661 11.1817 19.1821 11.527 18.5777L14.4242 13.5077C14.7802 12.8846 15.4429 12.5 16.1607 12.5ZM15 22C15 22.2761 14.7761 22.5 14.5 22.5C14.2239 22.5 14 22.2761 14 22C14 21.7239 14.2239 21.5 14.5 21.5C14.7761 21.5 15 21.7239 15 22ZM26 22C26 22.2761 25.7761 22.5 25.5 22.5C25.2239 22.5 25 22.2761 25 22C25 21.7239 25.2239 21.5 25.5 21.5C25.7761 21.5 26 21.7239 26 22Z" stroke="#37A755" stroke-width="1.4" stroke-linecap="round" stroke-linejoin="round"/>
</svg>
