<svg width="40" height="48" viewBox="0 0 40 48" fill="none" xmlns="http://www.w3.org/2000/svg">
<circle cx="20" cy="40.999" r="6.99902" fill="black" fill-opacity="0.2"/>
<circle cx="20" cy="40.999" r="3" fill="black"/>
<circle cx="20" cy="41" r="1" fill="white"/>
<path d="M21 39L19 39L19 30L21 30L21 39Z" fill="black"/>
<g filter="url(#filter0_d_59_7395)">
<rect x="7" y="7" width="26" height="26" rx="5" fill="#0D0D0D"/>
<rect x="7.65" y="7.65" width="24.7" height="24.7" rx="4.35" stroke="white" stroke-width="1.3"/>
<path fill-rule="evenodd" clip-rule="evenodd" d="M12.6983 14.924C12.9959 14.8496 13.2976 15.0305 13.372 15.3282L13.6549 16.4599C14.1066 18.2668 15.5301 19.6677 17.3401 20.0926H23.2034C24.7522 20.0926 26.0559 21.2519 26.237 22.7902L26.718 26.8795C26.7539 27.1841 26.5359 27.4603 26.2312 27.4961C25.9265 27.532 25.6504 27.314 25.6145 27.0093L25.1334 22.92C25.0183 21.9413 24.1888 21.2037 23.2034 21.2037H17.2165L17.1569 21.1904C14.9086 20.6908 13.1356 18.9638 12.577 16.7294L12.2941 15.5977C12.2196 15.3 12.4006 14.9984 12.6983 14.924Z" fill="white"/>
<path d="M17.2773 21.2037V24.3518C17.2773 25.7485 17.2773 26.4469 17.7112 26.8808C18.1451 27.3147 18.8435 27.3147 20.2403 27.3147C21.637 27.3147 22.3354 27.3147 22.7693 26.8808C23.2032 26.4469 23.2032 25.7485 23.2032 24.3518L23.2034 21.2037H17.2773Z" fill="white"/>
<path d="M20.2403 18.4259C21.8767 18.4259 23.2032 17.0993 23.2032 15.4629C23.2032 13.8266 21.8767 12.5 20.2403 12.5C18.6039 12.5 17.2773 13.8266 17.2773 15.4629C17.2773 17.0993 18.6039 18.4259 20.2403 18.4259Z" fill="white"/>
</g>
<defs>
<filter id="filter0_d_59_7395" x="0" y="0" width="40" height="40" filterUnits="userSpaceOnUse" color-interpolation-filters="sRGB">
<feFlood flood-opacity="0" result="BackgroundImageFix"/>
<feColorMatrix in="SourceAlpha" type="matrix" values="0 0 0 0 0 0 0 0 0 0 0 0 0 0 0 0 0 0 127 0" result="hardAlpha"/>
<feOffset/>
<feGaussianBlur stdDeviation="3.5"/>
<feComposite in2="hardAlpha" operator="out"/>
<feColorMatrix type="matrix" values="0 0 0 0 0 0 0 0 0 0 0 0 0 0 0 0 0 0 0.25 0"/>
<feBlend mode="normal" in2="BackgroundImageFix" result="effect1_dropShadow_59_7395"/>
<feBlend mode="normal" in="SourceGraphic" in2="effect1_dropShadow_59_7395" result="shape"/>
</filter>
</defs>
</svg>
