<svg width="20" height="17" viewBox="0 0 20 17" fill="none" xmlns="http://www.w3.org/2000/svg">
<path d="M9.13412 3.83011H18.9826M0.800781 3.83011H2.61896M10.6493 12.7695H0.800782M18.9826 12.7695H17.1644M5.72502 6.86041C7.39858 6.86041 8.75533 5.50367 8.75533 3.83011C8.75533 2.15652 7.39858 0.799805 5.72502 0.799805C4.05143 0.799805 2.69472 2.15652 2.69472 3.83011C2.69472 5.50367 4.05143 6.86041 5.72502 6.86041ZM14.0584 15.7998C12.3848 15.7998 11.0281 14.4431 11.0281 12.7695C11.0281 11.0959 12.3848 9.7392 14.0584 9.7392C15.7319 9.7392 17.0887 11.0959 17.0887 12.7695C17.0887 14.4431 15.7319 15.7998 14.0584 15.7998Z" stroke="#666666" stroke-width="1.6" stroke-linecap="round" stroke-linejoin="round"/>
</svg>
