<svg width="16" height="16" viewBox="0 0 16 16" fill="none" xmlns="http://www.w3.org/2000/svg">
<rect width="16" height="16" rx="8" fill="#161616"/>
<path d="M12 8.00001C12 9.06088 11.5786 10.0783 10.8284 10.8284C10.0783 11.5786 9.06087 12 8 12C6.93913 12 5.92172 11.5786 5.17157 10.8284C4.42143 10.0783 4 9.06088 4 8.00001C4 6.93915 4.42143 5.92174 5.17157 5.1716C5.92172 4.42145 6.93913 4.00003 8 4.00003C8.38 4.00003 8.75 4.05503 9.1 4.15503L9.885 3.37003C9.28723 3.12353 8.64659 2.99778 8 3.00003C7.34339 3.00003 6.69321 3.12936 6.08658 3.38063C5.47995 3.6319 4.92876 4.0002 4.46447 4.46449C3.52678 5.40217 3 6.67394 3 8.00001C3 9.32609 3.52678 10.5979 4.46447 11.5355C4.92876 11.9998 5.47995 12.3681 6.08658 12.6194C6.69321 12.8707 7.34339 13 8 13C9.32608 13 10.5979 12.4732 11.5355 11.5355C12.4732 10.5979 13 9.32609 13 8.00001M5.955 7.04002L5.25 7.75002L7.5 10L12.5 5.00002L11.795 4.29003L7.5 8.58501L5.955 7.04002Z" fill="white"/>
</svg>
