<svg width="24" height="20" viewBox="0 0 24 20" fill="none" xmlns="http://www.w3.org/2000/svg">
<path d="M23.2537 4.82514C23.2537 5.59252 22.6259 6.22037 21.8585 6.22037H1.39522C0.62785 6.22037 0 5.59252 0 4.82514V4.81352C0 2.15097 2.15097 0 4.81352 0H18.4286C21.0911 0 23.2537 2.16259 23.2537 4.82514Z" fill="#37A755"/>
<path d="M0 9.36143V15.1865C0 17.849 2.15097 20 4.81352 20H18.4286C21.0911 20 23.2537 17.8374 23.2537 15.1749V9.36143C23.2537 8.59406 22.6259 7.96621 21.8585 7.96621H1.39522C0.62785 7.96621 0 8.59406 0 9.36143ZM6.97611 16.105H4.65074C4.17404 16.105 3.77873 15.7097 3.77873 15.233C3.77873 14.7563 4.17404 14.361 4.65074 14.361H6.97611C7.45281 14.361 7.84813 14.7563 7.84813 15.233C7.84813 15.7097 7.45281 16.105 6.97611 16.105ZM14.5336 16.105H9.88282C9.40612 16.105 9.01081 15.7097 9.01081 15.233C9.01081 14.7563 9.40612 14.361 9.88282 14.361H14.5336C15.0103 14.361 15.4056 14.7563 15.4056 15.233C15.4056 15.7097 15.0103 16.105 14.5336 16.105Z" fill="#37A755"/>
</svg>
