<svg width="25" height="25" viewBox="0 0 25 25" fill="none" xmlns="http://www.w3.org/2000/svg">
<path fill-rule="evenodd" clip-rule="evenodd" d="M19.772 9.77273C19.772 13.4821 16.995 16.5428 13.4067 16.9894C13.4078 17.0079 13.4084 17.0266 13.4084 17.0455V18.8636H14.3175C14.8196 18.8636 15.2266 19.2706 15.2266 19.7727C15.2266 20.2748 14.8196 20.6818 14.3175 20.6818H13.4084V21.5909C13.4084 22.093 13.0014 22.5 12.4993 22.5C11.9972 22.5 11.5902 22.093 11.5902 21.5909V20.6818H10.6811C10.179 20.6818 9.77202 20.2748 9.77202 19.7727C9.77202 19.2706 10.179 18.8636 10.6811 18.8636H11.5902V17.0455C11.5902 17.0266 11.5907 17.0079 11.5919 16.9894C8.00353 16.5428 5.22656 13.4821 5.22656 9.77273C5.22656 5.75611 8.48267 2.5 12.4993 2.5C16.5159 2.5 19.772 5.75611 19.772 9.77273ZM7.04806 9.77273C7.04806 12.7834 9.48866 15.2239 12.4993 15.2239C15.5099 15.2239 17.9505 12.7834 17.9505 9.77273C17.9505 6.7621 15.5099 4.3215 12.4993 4.3215C9.48866 4.3215 7.04806 6.7621 7.04806 9.77273Z" fill="#0F0F0F"/>
</svg>
