<svg width="27" height="28" viewBox="0 0 27 28" fill="none" xmlns="http://www.w3.org/2000/svg">
<path opacity="0.07" d="M21.5085 6.62129C21.5119 6.62107 21.5146 6.62009 21.5179 6.61987C21.635 6.61304 21.7435 6.59543 21.8451 6.57038C21.88 6.56174 21.9102 6.54867 21.9433 6.538C22.0098 6.51667 22.0742 6.49371 22.1328 6.46467C22.1661 6.44815 22.1959 6.42901 22.2265 6.41014C22.277 6.37913 22.3242 6.3461 22.3672 6.30924C22.3939 6.28627 22.4191 6.26276 22.4429 6.23771C22.4815 6.19702 22.5149 6.15343 22.5455 6.10761C22.5635 6.08059 22.5825 6.05456 22.5976 6.02585C22.626 5.97231 22.6465 5.91494 22.6646 5.85609C22.6725 5.83034 22.6839 5.80644 22.6898 5.77975C22.7091 5.69236 22.7191 5.60097 22.716 5.50499C22.7156 5.49411 22.712 5.48241 22.7114 5.47142C22.7069 5.39496 22.6986 5.31719 22.6794 5.23664C22.6783 5.2391 22.6761 5.2409 22.675 5.24336C22.6515 5.14181 22.6154 5.03763 22.5691 4.93164L20.8438 6.657L21.5085 6.62129Z" fill="#040000"/>
<path d="M25.0474 10.8707V26.9462C25.0474 27.5247 24.5766 28 23.9936 28H2.99905C2.41612 28 1.94531 27.5247 1.94531 26.9462V10.8707C1.94531 10.2922 2.41612 9.81689 2.99905 9.81689H23.9936C24.5766 9.81689 25.0474 10.2922 25.0474 10.8707Z" fill="white"/>
<path opacity="0.1" d="M25.0474 10.8707V16.2785H1.94531V10.8707C1.94531 10.2922 2.41612 9.81689 2.99905 9.81689H23.9936C24.5766 9.81689 25.0474 10.2922 25.0474 10.8707Z" fill="#191919"/>
<path d="M26.4685 8.61981V12.6241C26.4685 12.7766 26.4461 12.9245 26.4058 13.0681C26.2309 13.6824 25.6973 14.1487 25.0471 14.2295C24.9843 14.2384 24.917 14.2429 24.8498 14.2429H2.14221C2.07495 14.2429 2.00768 14.2384 1.94495 14.2295C1.14672 14.1308 0.523438 13.4447 0.523438 12.6241V8.61975C0.523438 7.73189 1.24986 7.00098 2.14221 7.00098H24.8498C25.7421 7.00103 26.4685 7.73194 26.4685 8.61981Z" fill="white"/>
<path d="M16.1642 7.39526C16.1642 7.48938 16.1552 7.57907 16.1283 7.66427C15.931 8.48935 14.8279 9.11712 13.4962 9.11712C12.1644 9.11712 11.0613 8.48935 10.864 7.66427C10.8371 7.57907 10.8281 7.48938 10.8281 7.39526C10.8281 7.30108 10.8371 7.2114 10.864 7.12619C10.873 7.08135 10.8819 7.04099 10.8999 7.00063C10.8999 6.99166 10.9044 6.98717 10.9088 6.98269C10.9133 6.96027 10.9223 6.93784 10.9358 6.91542C11.0523 6.65084 11.2631 6.41322 11.5456 6.22487C11.8729 5.99622 12.2899 5.82581 12.7652 5.74061C12.9939 5.69576 13.2405 5.67334 13.4962 5.67334C13.7518 5.67334 13.9984 5.69576 14.2271 5.74061C14.7024 5.82581 15.1194 5.99622 15.4468 6.22487C15.7293 6.41322 15.94 6.65084 16.0566 6.91542C16.0701 6.93784 16.079 6.96027 16.0835 6.98269C16.088 6.98717 16.0925 6.99166 16.0925 7.00063C16.1104 7.04099 16.1194 7.08135 16.1284 7.12619C16.1552 7.2114 16.1642 7.30103 16.1642 7.39526Z" fill="url(#paint0_linear_14908_30802)"/>
<path d="M16.1264 14.1719H10.8594V27.9885H16.1264V14.1719Z" fill="#2E9D4C"/>
<path d="M16.1315 6.98291H10.8672V14.2427H16.1315V6.98291Z" fill="#34C85C"/>
<path d="M12.9997 6.36016C12.9997 6.49918 12.9549 6.6202 12.8652 6.71886C12.8518 6.7368 12.8293 6.75473 12.8114 6.76819C12.6365 6.91617 12.3495 6.98793 11.9594 6.96999L10.9371 6.91617L5.48884 6.6202C5.06281 6.59778 4.7355 6.44979 4.52922 6.21666C4.48437 6.16284 4.44401 6.10903 4.40819 6.05073C4.30057 5.86238 4.26021 5.63816 4.2916 5.39157C4.2916 5.36915 4.29608 5.34673 4.30505 5.31982C4.30505 5.29291 4.30954 5.26601 4.32299 5.2391C4.3499 5.10905 4.39922 4.979 4.46649 4.84452L6.56056 0.759467C7.03138 -0.164275 7.95063 -0.258393 8.60082 0.548752L12.6634 5.60234C12.7038 5.65167 12.7352 5.69651 12.7665 5.74136C12.8114 5.80414 12.8473 5.86238 12.8742 5.92068C12.8966 5.96104 12.9145 6.0014 12.928 6.03728C12.9459 6.07764 12.9594 6.118 12.9683 6.15387C12.9773 6.18975 12.9863 6.22562 12.9908 6.2615C12.9953 6.29289 12.9997 6.32877 12.9997 6.36016Z" fill="url(#paint1_linear_14908_30802)"/>
<path opacity="0.07" d="M12.9997 6.35943C12.9997 6.49845 12.9549 6.61947 12.8652 6.71813C12.8518 6.73607 12.8293 6.754 12.8114 6.76746C12.6365 6.91544 12.3495 6.9872 11.9594 6.96926L10.9371 6.91544L5.48884 6.61947C5.06281 6.59705 4.7355 6.44906 4.52922 6.21593C4.48437 6.16211 4.44401 6.1083 4.40819 6.05C4.30057 5.86165 4.26021 5.63743 4.2916 5.39084C4.2916 5.36842 4.29608 5.346 4.30505 5.31909C4.30505 5.29218 4.30954 5.26528 4.3185 5.23389L4.32299 5.23837C4.48443 5.61053 4.87901 5.86614 5.44399 5.89305L11.5469 6.22484L11.9146 6.24278C12.4033 6.26968 12.7352 6.14412 12.8742 5.9199C12.8966 5.96026 12.9145 6.00062 12.928 6.03649C12.9459 6.07685 12.9594 6.11721 12.9683 6.15309C12.9773 6.18896 12.9863 6.22484 12.9908 6.26072C12.9953 6.29216 12.9997 6.32804 12.9997 6.35943Z" fill="#191919"/>
<path d="M22.5838 6.05061C22.5479 6.10891 22.5076 6.16272 22.4627 6.21654C22.2565 6.44967 21.9291 6.59766 21.5031 6.62008L16.0549 6.91605L15.0325 6.96987C14.6424 6.98781 14.3554 6.91605 14.1805 6.76807C14.1626 6.75461 14.1402 6.73668 14.1267 6.71874C14.037 6.62008 13.9922 6.499 13.9922 6.36004C13.9922 6.32865 13.9967 6.29277 14.0012 6.26138C14.0056 6.2255 14.0146 6.18963 14.0236 6.15375C14.0325 6.11788 14.046 6.07752 14.0639 6.03716C14.0774 6.00128 14.0953 5.96092 14.1178 5.92056C14.1447 5.86226 14.1805 5.80397 14.2254 5.74124C14.2568 5.69639 14.2882 5.65155 14.3285 5.60222L18.3911 0.548632C18.7543 0.095758 19.2027 -0.0701666 19.6108 0.032921C19.9292 0.109157 20.2251 0.351317 20.4314 0.759347L20.53 0.952178L22.5254 4.8444C22.5927 4.97894 22.642 5.10893 22.6689 5.23898C22.6824 5.26589 22.6869 5.29279 22.6869 5.3197C22.6958 5.34661 22.7003 5.36903 22.7003 5.39145C22.7318 5.6381 22.6914 5.86226 22.5838 6.05061Z" fill="url(#paint2_linear_14908_30802)"/>
<path opacity="0.07" d="M15.0309 6.96831L21.504 6.62033C22.3881 6.57292 22.853 5.98234 22.675 5.23584C22.5117 5.61051 22.1174 5.86437 21.5507 5.89489L15.0779 6.24249C14.5874 6.26879 14.2584 6.14454 14.1172 5.92048C13.7802 6.56449 14.1376 7.01644 15.0309 6.96831Z" fill="#191919"/>
<path opacity="0.03" d="M26.4688 8.6197V12.624C26.4688 12.7765 26.4464 12.9244 26.4061 13.0679C26.2312 13.6778 25.6976 14.1397 25.0474 14.2203V26.9463C25.0474 27.5247 24.5766 28 23.9937 28H2.99905C2.41612 28 1.94531 27.5247 1.94531 26.9463V25.5517L10.8642 16.6328L11.2184 16.2786L13.2542 14.2428L17.68 9.81699L20.496 7.00098H24.8501C25.7424 7.00092 26.4688 7.73183 26.4688 8.6197Z" fill="#191919"/>
<defs>
<linearGradient id="paint0_linear_14908_30802" x1="10.8281" y1="7.39522" x2="16.1642" y2="7.39522" gradientUnits="userSpaceOnUse">
<stop offset="0.0338" stop-color="#23A145"/>
<stop offset="0.9903" stop-color="#34C85C"/>
</linearGradient>
<linearGradient id="paint1_linear_14908_30802" x1="4.28125" y1="3.48635" x2="12.9997" y2="3.48635" gradientUnits="userSpaceOnUse">
<stop offset="0.0338" stop-color="#55CD75"/>
<stop offset="0.9903" stop-color="#4BDB72"/>
</linearGradient>
<linearGradient id="paint2_linear_14908_30802" x1="13.9922" y1="3.488" x2="22.7107" y2="3.488" gradientUnits="userSpaceOnUse">
<stop offset="0.0338" stop-color="#55CD75"/>
<stop offset="0.9903" stop-color="#34C85C"/>
</linearGradient>
</defs>
</svg>
