<svg width="40" height="41" viewBox="0 0 40 41" fill="none" xmlns="http://www.w3.org/2000/svg">
<rect y="0.5" width="40" height="40" rx="8" fill="#EAF6ED"/>
<path d="M25.4 20.5C25.4 23.4823 22.9823 25.9 20 25.9C17.0177 25.9 14.6 23.4823 14.6 20.5M25.4 20.5C25.4 17.5177 22.9823 15.1 20 15.1C17.0177 15.1 14.6 17.5177 14.6 20.5M25.4 20.5H21.8M14.6 20.5H18.2M21.8 20.5C21.8 21.4941 20.9941 22.3 20 22.3C19.0059 22.3 18.2 21.4941 18.2 20.5M21.8 20.5C21.8 19.5059 20.9941 18.7 20 18.7C19.0059 18.7 18.2 19.5059 18.2 20.5M17.3 25.1767L19.1 22.059M20.9 18.9413L22.7 15.8236M22.7 25.1767L20.9 22.059M19.1 18.9413L17.3 15.8236M29 20.5C29 25.4706 24.9706 29.5 20 29.5C15.0294 29.5 11 25.4706 11 20.5C11 15.5294 15.0294 11.5 20 11.5C24.9706 11.5 29 15.5294 29 20.5Z" stroke="#37A755" stroke-width="1.2" stroke-linecap="round"/>
</svg>
