<svg width="32" height="32" viewBox="0 0 32 32" fill="none" xmlns="http://www.w3.org/2000/svg">
<rect width="32" height="32" rx="8" fill="#37A755" fill-opacity="0.1"/>
<path d="M22.4702 16.4357L23.5827 17.4264C23.7881 17.5979 23.9254 17.8372 23.9696 18.1011C24.0139 18.365 23.9622 18.6361 23.8239 18.8651L22.4825 21.1568C22.3784 21.3322 22.2298 21.477 22.0518 21.5764C21.8716 21.6761 21.6694 21.729 21.4635 21.7303C21.3358 21.7311 21.2088 21.712 21.087 21.6737L19.6631 21.2035C19.4137 21.3635 19.1544 21.5067 18.8853 21.633L18.5863 23.0767C18.531 23.3423 18.3831 23.5795 18.1691 23.7462C17.9524 23.9159 17.6837 24.0054 17.4086 23.9997H14.631C14.3559 24.0054 14.0872 23.9159 13.8705 23.7462C13.657 23.5793 13.5096 23.3421 13.4545 23.0767L13.1543 21.633C12.8887 21.505 12.631 21.3612 12.3827 21.2023L10.9539 21.6737C10.8321 21.712 10.705 21.7311 10.5773 21.7303C10.3719 21.7288 10.1701 21.6759 9.99031 21.5764C9.8124 21.4773 9.66382 21.333 9.55958 21.158L8.17019 18.8651C8.02575 18.634 7.97056 18.3581 8.01496 18.0892C8.05937 17.8202 8.20032 17.5767 8.4114 17.4043L9.52266 16V15.5643L8.41017 14.5736C8.20473 14.4021 8.06746 14.1628 8.02322 13.8989C7.97897 13.635 8.03067 13.3639 8.16896 13.1349L9.55835 10.8432C9.66242 10.6678 9.81102 10.523 9.98907 10.4236C10.1688 10.3241 10.3706 10.2712 10.5761 10.2697C10.7026 10.2617 10.8297 10.2734 10.9527 10.3042L12.3531 10.7965C12.6034 10.6365 12.8626 10.4933 13.1309 10.3669L13.4312 8.9233C13.4862 8.65792 13.6336 8.42067 13.8471 8.25379C14.0638 8.08412 14.3325 7.99456 14.6077 8.00026H17.3618C17.637 7.99456 17.9056 8.08412 18.1224 8.25379C18.3377 8.4224 18.4854 8.65993 18.5383 8.9233L18.8386 10.3669C19.1052 10.4941 19.3624 10.6377 19.6102 10.7977L21.0402 10.3276C21.1989 10.2759 21.3666 10.2578 21.5327 10.2743C21.6987 10.2909 21.8596 10.3417 22.005 10.4236C22.1835 10.5245 22.3311 10.6697 22.4357 10.842L23.8239 13.1349C23.9703 13.364 24.0283 13.6387 23.9871 13.9075C23.9458 14.1763 23.8082 14.4209 23.5999 14.5957L22.4702 15.5582V16.4357Z" stroke="#37A755" stroke-width="0.939252"/>
<path d="M19.0761 16C19.0761 16.816 18.752 17.5986 18.175 18.1756C17.598 18.7527 16.8155 19.0768 15.9995 19.0768C15.1835 19.0768 14.401 18.7527 13.824 18.1756C13.2471 17.5986 12.9229 16.816 12.9229 16C12.9229 15.184 13.2471 14.4014 13.824 13.8244C14.401 13.2473 15.1835 12.9232 15.9995 12.9232C16.8155 12.9232 17.598 13.2473 18.175 13.8244C18.752 14.4014 19.0761 15.184 19.0761 16Z" stroke="#37A755" stroke-width="0.939252"/>
</svg>
