<svg width="25" height="25" viewBox="0 0 25 25" fill="none" xmlns="http://www.w3.org/2000/svg">
<path fill-rule="evenodd" clip-rule="evenodd" d="M0 12.5C0 5.59644 5.59644 0 12.5 0C19.4035 0 25 5.59644 25 12.5C25 19.4035 19.4035 25 12.5 25C5.59644 25 0 19.4035 0 12.5ZM11.25 17.5C11.25 18.1904 11.8096 18.75 12.5 18.75C13.1904 18.75 13.75 18.1904 13.75 17.5V10.5177L15.3661 12.1339C15.8542 12.622 16.6458 12.622 17.1339 12.1339C17.622 11.6458 17.622 10.8542 17.1339 10.3661L13.4926 6.72491C13.4739 6.70608 13.4546 6.68789 13.435 6.67034C13.206 6.41247 12.872 6.25 12.5 6.25C12.128 6.25 11.794 6.41247 11.565 6.67034C11.5454 6.68787 11.5261 6.70608 11.5074 6.72491L7.86611 10.3661C7.37796 10.8542 7.37796 11.6458 7.86611 12.1339C8.35427 12.622 9.14573 12.622 9.63389 12.1339L11.25 10.5177V17.5Z" fill="#37A755"/>
</svg>
