<svg width="25" height="25" viewBox="0 0 25 25" fill="none" xmlns="http://www.w3.org/2000/svg">
<path d="M10.6602 6.23391L11.2687 7.32416C11.8178 8.30805 11.5974 9.59875 10.7325 10.4636C10.7325 10.4636 9.68364 11.5126 11.5855 13.4146C13.4867 15.3158 14.5364 14.2675 14.5364 14.2675C15.4013 13.4026 16.6919 13.1822 17.6758 13.7313L18.7661 14.3398C20.2518 15.1689 20.4272 17.2524 19.1214 18.5583C18.3367 19.343 17.3754 19.9536 16.3127 19.9938C14.5239 20.0617 11.4859 19.609 8.43847 16.5616C5.39106 13.5141 4.93832 10.4762 5.00614 8.68728C5.04643 7.62463 5.657 6.66334 6.4417 5.87866C7.74759 4.57276 9.8311 4.74822 10.6602 6.23391Z" stroke="black" stroke-opacity="0.6" stroke-width="1.1" stroke-linecap="round"/>
</svg>
