<svg width="40" height="41" viewBox="0 0 40 41" fill="none" xmlns="http://www.w3.org/2000/svg">
<rect y="0.5" width="40" height="40" rx="8" fill="#EAF6ED"/>
<path d="M20 19.0938C21.933 19.0938 23.5 17.5058 23.5 15.5469C23.5 13.588 21.933 12 20 12C18.067 12 16.5 13.588 16.5 15.5469C16.5 17.5058 18.067 19.0938 20 19.0938Z" stroke="#7B7B7B" stroke-width="1.4"/>
<path d="M20 19.0938C21.933 19.0938 23.5 17.5058 23.5 15.5469C23.5 13.588 21.933 12 20 12C18.067 12 16.5 13.588 16.5 15.5469C16.5 17.5058 18.067 19.0938 20 19.0938Z" stroke="#37A755" stroke-width="1.4"/>
<path d="M27 25.0097C27 27.2135 27 29 20 29C13 29 13 27.2135 13 25.0097C13 22.8059 16.134 21.0194 20 21.0194C23.866 21.0194 27 22.8059 27 25.0097Z" stroke="#7B7B7B" stroke-width="1.4"/>
<path d="M27 25.0097C27 27.2135 27 29 20 29C13 29 13 27.2135 13 25.0097C13 22.8059 16.134 21.0194 20 21.0194C23.866 21.0194 27 22.8059 27 25.0097Z" stroke="#37A755" stroke-width="1.4"/>
</svg>
