<svg width="20" height="18" viewBox="0 0 20 18" fill="none" xmlns="http://www.w3.org/2000/svg">
<path d="M15.1 12.0769H13.4M13.4 12.0769H11.7M13.4 12.0769V10.4359M13.4 12.0769V13.7179M5.75 2.23077V1M14.25 2.23077V1M1.5 6.33333H18.5M1.5 8.79487C1.5 5.70052 1.5 4.15335 2.49583 3.19206C3.49168 2.23077 5.09445 2.23077 8.3 2.23077H11.7C14.9055 2.23077 16.5084 2.23077 17.5041 3.19206C18.5 4.15335 18.5 5.70052 18.5 8.79487V10.4359C18.5 13.5302 18.5 15.0775 17.5041 16.0387C16.5084 17 14.9055 17 11.7 17H8.3C5.09445 17 3.49168 17 2.49583 16.0387C1.5 15.0775 1.5 13.5302 1.5 10.4359V8.79487Z" stroke="#37A755" stroke-width="1.3" stroke-linecap="round"/>
</svg>
