<svg width="19" height="15" viewBox="0 0 19 15" fill="none" xmlns="http://www.w3.org/2000/svg">
<path d="M7.50062 15H11.2507C14.7862 15 16.5539 15 17.6523 13.9016C18.7507 12.8033 18.7507 11.0355 18.7507 7.5C18.7507 7.08572 18.7491 5.9925 18.7473 5.625H0.000850377C-0.000921498 5.9925 0.000625407 7.08572 0.000625407 7.5C0.000625407 11.0355 0.000625402 12.8033 1.09897 13.9016C2.19733 15 3.96509 15 7.50062 15Z" fill="#5BB0C2"/>
<path d="M7.49601 0H11.2557C14.8003 0 16.5727 -8.9407e-08 17.6738 1.04604C18.4667 1.79921 18.6887 2.88288 18.7508 4.6875V5.625H0.000850377L0.000850439 4.6875C0.0630067 2.88288 0.285007 1.79921 1.07786 1.04604C2.17904 -8.9407e-08 3.95136 0 7.49601 0Z" fill="#23505E"/>
<path d="M9.8446 10.5469C9.45629 10.5469 9.14147 10.8617 9.14147 11.25C9.14147 11.6383 9.45629 11.9531 9.8446 11.9531H11.2508C11.6392 11.9531 11.954 11.6383 11.954 11.25C11.954 10.8617 11.6392 10.5469 11.2508 10.5469H9.8446Z" fill="#23505E"/>
<path d="M3.75085 10.5469C3.36253 10.5469 3.04773 10.8617 3.04773 11.25C3.04773 11.6383 3.36253 11.9531 3.75085 11.9531H7.50085C7.88916 11.9531 8.20397 11.6383 8.20397 11.25C8.20397 10.8617 7.88916 10.5469 7.50085 10.5469H3.75085Z" fill="#23505E"/>
</svg>
