<svg width="23" height="23" viewBox="0 0 23 23" fill="none" xmlns="http://www.w3.org/2000/svg">
<rect width="23" height="23" rx="11.5" fill="#37A755"/>
<path d="M16.3 11.5C16.3 12.7731 15.7943 13.9939 14.8941 14.8941C13.9939 15.7943 12.773 16.3 11.5 16.3C10.227 16.3 9.00606 15.7943 8.10589 14.8941C7.20571 13.9939 6.7 12.7731 6.7 11.5C6.7 10.227 7.20571 9.00609 8.10589 8.10592C9.00606 7.20574 10.227 6.70003 11.5 6.70003C11.956 6.70003 12.4 6.76603 12.82 6.88603L13.762 5.94403C13.0447 5.64824 12.2759 5.49734 11.5 5.50004C10.7121 5.50004 9.93185 5.65523 9.2039 5.95676C8.47595 6.25828 7.81451 6.70024 7.25736 7.25739C6.13214 8.3826 5.5 9.90872 5.5 11.5C5.5 13.0913 6.13214 14.6174 7.25736 15.7426C7.81451 16.2998 8.47595 16.7418 9.2039 17.0433C9.93185 17.3448 10.7121 17.5 11.5 17.5C13.0913 17.5 14.6174 16.8679 15.7426 15.7426C16.8679 14.6174 17.5 13.0913 17.5 11.5M9.046 10.348L8.2 11.2L10.9 13.9L16.9 7.90003L16.054 7.04803L10.9 12.202L9.046 10.348Z" fill="white"/>
</svg>
