<svg width="13" height="13" viewBox="0 0 13 13" fill="none" xmlns="http://www.w3.org/2000/svg">
<path d="M2.83663 2.83663L2.53832 2.53831L2.53831 2.53832L2.83663 2.83663ZM2.83663 4.75712L2.53831 5.05543L2.53832 5.05544L2.83663 4.75712ZM6.44462 4.75712L6.74292 5.05544L6.74293 5.05544L6.44462 4.75712ZM6.44462 2.83663L6.74293 2.53832L6.74292 2.53831L6.44462 2.83663ZM3.23438 8.4375C3.00138 8.4375 2.8125 8.62638 2.8125 8.85938C2.8125 9.09237 3.00138 9.28125 3.23438 9.28125V8.85938V8.4375ZM6.04688 9.28125C6.27987 9.28125 6.46875 9.09237 6.46875 8.85938C6.46875 8.62638 6.27987 8.4375 6.04688 8.4375V8.85938V9.28125ZM8.85938 12.0938C9.09237 12.0938 9.28125 11.9049 9.28125 11.6719C9.28125 11.4389 9.09237 11.25 8.85938 11.25V11.6719V12.0938ZM0.421875 11.25C0.18888 11.25 -2.98023e-08 11.4389 -2.98023e-08 11.6719C-2.98023e-08 11.9049 0.18888 12.0938 0.421875 12.0938V11.6719V11.25ZM10.5292 1.21744C10.3472 1.07189 10.0817 1.10139 9.93619 1.28333C9.79064 1.46527 9.82014 1.73076 10.0021 1.87631L10.2656 1.54688L10.5292 1.21744ZM10.9592 2.10176L11.2228 1.77236L11.2228 1.77233L10.9592 2.10176ZM11.1108 2.2264L11.3924 1.91228L11.3923 1.91223L11.1108 2.2264ZM11.6692 3.3883L12.0904 3.36474L12.0904 3.36465L11.6692 3.3883ZM8.29688 8.4375C8.06388 8.4375 7.875 8.62638 7.875 8.85938C7.875 9.09237 8.06388 9.28125 8.29688 9.28125V8.85938V8.4375ZM11.6719 4.21875C11.9049 4.21875 12.0938 4.02987 12.0938 3.79688C12.0938 3.56388 11.9049 3.375 11.6719 3.375V3.79688V4.21875ZM10.5613 6.80169L10.4279 7.20192L10.4279 7.20192L10.5613 6.80169ZM11.5385 7.5721C11.7595 7.64578 11.9984 7.52632 12.0721 7.30528C12.1458 7.08424 12.0263 6.84533 11.8053 6.77165L11.6719 7.17188L11.5385 7.5721ZM8.29688 11.6719H8.71875V3.79688H8.29688H7.875V11.6719H8.29688ZM8.29688 3.79688H8.71875C8.71875 3.01331 8.71965 2.38319 8.6532 1.88901C8.58513 1.3827 8.4395 0.956396 8.10091 0.617818L7.80261 0.916133L7.5043 1.21445C7.65998 1.37013 7.76148 1.5887 7.81698 2.00144C7.8741 2.42633 7.875 2.98945 7.875 3.79688H8.29688ZM7.80261 0.916133L8.10091 0.617818C7.76233 0.279244 7.33603 0.133616 6.82972 0.0655442C6.33555 -0.000895977 5.70544 -2.98023e-08 4.92188 -2.98023e-08V0.421875V0.84375C5.72929 0.84375 6.29241 0.844646 6.71729 0.90177C7.13004 0.957263 7.34861 1.05876 7.5043 1.21445L7.80261 0.916133ZM4.92188 0.421875V-2.98023e-08H4.35938V0.421875V0.84375H4.92188V0.421875ZM4.35938 0.421875V-2.98023e-08C3.57581 -2.98023e-08 2.94569 -0.000895977 2.45151 0.0655441C1.9452 0.133616 1.5189 0.279244 1.18032 0.617822L1.47863 0.916133L1.77694 1.21444C1.93262 1.05876 2.15119 0.957263 2.56394 0.90177C2.98883 0.844646 3.55195 0.84375 4.35938 0.84375V0.421875ZM1.47863 0.916133L1.18032 0.617822C0.841744 0.9564 0.696116 1.3827 0.628044 1.88901C0.561604 2.38319 0.5625 3.01331 0.5625 3.79688H0.984375H1.40625C1.40625 2.98945 1.40715 2.42633 1.46427 2.00144C1.51976 1.58869 1.62126 1.37012 1.77694 1.21444L1.47863 0.916133ZM0.984375 3.79688H0.5625V11.6719H0.984375H1.40625V3.79688H0.984375ZM5.48438 2.67188V2.25H3.79688V2.67188V3.09375H5.48438V2.67188ZM3.79688 2.67188V2.25C3.54364 2.25 3.31127 2.2491 3.12345 2.27436C2.92349 2.30124 2.71215 2.36449 2.53832 2.53831L2.83663 2.83663L3.13493 3.13494C3.13519 3.13468 3.1352 3.1347 3.135 3.13485C3.13481 3.13501 3.13468 3.1351 3.13471 3.13508C3.13476 3.13505 3.13524 3.13473 3.13631 3.13417C3.1374 3.1336 3.13926 3.13269 3.1421 3.13153C3.15436 3.12649 3.18156 3.11788 3.23587 3.11058C3.3544 3.09465 3.51978 3.09375 3.79688 3.09375V2.67188ZM2.83663 2.83663L2.53831 2.53832C2.36449 2.71215 2.30124 2.92349 2.27436 3.12345C2.2491 3.31127 2.25 3.54364 2.25 3.79688H2.67188H3.09375C3.09375 3.51978 3.09465 3.3544 3.11058 3.23587C3.11788 3.18156 3.12649 3.15436 3.13153 3.1421C3.13269 3.13926 3.1336 3.1374 3.13417 3.13631C3.13473 3.13524 3.13505 3.13476 3.13508 3.13471C3.1351 3.13468 3.13501 3.13481 3.13485 3.135C3.1347 3.1352 3.13468 3.13519 3.13494 3.13493L2.83663 2.83663ZM2.67188 3.79688H2.25C2.25 4.05011 2.2491 4.28248 2.27436 4.4703C2.30124 4.67026 2.36449 4.8816 2.53831 5.05543L2.83663 4.75712L3.13494 4.45882C3.13468 4.45856 3.1347 4.45855 3.13485 4.45875C3.13501 4.45894 3.1351 4.45907 3.13508 4.45904C3.13505 4.45899 3.13473 4.45851 3.13417 4.45744C3.1336 4.45635 3.13269 4.45449 3.13153 4.45165C3.12649 4.43939 3.11788 4.41219 3.11058 4.35788C3.09465 4.23935 3.09375 4.07397 3.09375 3.79688H2.67188ZM2.83663 4.75712L2.53832 5.05544C2.71215 5.22926 2.92349 5.29251 3.12345 5.31939C3.31127 5.34465 3.54364 5.34375 3.79688 5.34375V4.92188V4.5C3.51978 4.5 3.3544 4.4991 3.23587 4.48317C3.18156 4.47587 3.15435 4.46726 3.1421 4.46222C3.13926 4.46106 3.1374 4.46015 3.13631 4.45958C3.13524 4.45902 3.13476 4.4587 3.13471 4.45867C3.13468 4.45865 3.13481 4.45874 3.135 4.4589C3.1352 4.45905 3.13519 4.45907 3.13493 4.45881L2.83663 4.75712ZM3.79688 4.92188V5.34375H5.48438V4.92188V4.5H3.79688V4.92188ZM5.48438 4.92188V5.34375C5.73761 5.34375 5.96998 5.34465 6.1578 5.31939C6.35776 5.29251 6.5691 5.22926 6.74292 5.05544L6.44462 4.75712L6.14631 4.45881C6.14606 4.45907 6.14605 4.45905 6.14624 4.4589C6.14643 4.45874 6.14657 4.45865 6.14653 4.45867C6.14648 4.4587 6.14601 4.45902 6.14493 4.45958C6.14384 4.46015 6.14198 4.46106 6.13914 4.46222C6.12689 4.46726 6.09969 4.47587 6.04537 4.48317C5.92684 4.4991 5.76146 4.5 5.48438 4.5V4.92188ZM6.44462 4.75712L6.74293 5.05544C6.91675 4.88161 6.98001 4.67027 7.00689 4.47031C7.03215 4.28248 7.03125 4.05011 7.03125 3.79688H6.60938H6.1875C6.1875 4.07397 6.1866 4.23934 6.17067 4.35787C6.16336 4.41219 6.15476 4.43939 6.14972 4.45164C6.14855 4.45448 6.14765 4.45635 6.14708 4.45743C6.14652 4.45851 6.1462 4.45898 6.14617 4.45903C6.14615 4.45907 6.14624 4.45894 6.1464 4.45874C6.14655 4.45855 6.14657 4.45856 6.14631 4.45881L6.44462 4.75712ZM6.60938 3.79688H7.03125C7.03125 3.54364 7.03215 3.31127 7.00689 3.12344C6.98001 2.92348 6.91675 2.71214 6.74293 2.53832L6.44462 2.83663L6.14631 3.13494C6.14657 3.13519 6.14655 3.1352 6.1464 3.13501C6.14624 3.13481 6.14615 3.13468 6.14617 3.13472C6.1462 3.13477 6.14652 3.13524 6.14708 3.13632C6.14765 3.1374 6.14855 3.13927 6.14972 3.14211C6.15476 3.15436 6.16336 3.18156 6.17067 3.23588C6.1866 3.35441 6.1875 3.51978 6.1875 3.79688H6.60938ZM6.44462 2.83663L6.74292 2.53831C6.5691 2.36449 6.35776 2.30124 6.1578 2.27436C5.96998 2.2491 5.73761 2.25 5.48438 2.25V2.67188V3.09375C5.76146 3.09375 5.92684 3.09465 6.04537 3.11058C6.09969 3.11788 6.12689 3.12649 6.13914 3.13153C6.14198 3.13269 6.14384 3.1336 6.14493 3.13417C6.14601 3.13473 6.14648 3.13505 6.14653 3.13508C6.14657 3.1351 6.14643 3.13501 6.14624 3.13485C6.14605 3.1347 6.14606 3.13468 6.14631 3.13494L6.44462 2.83663ZM3.23438 8.85938V9.28125H6.04688V8.85938V8.4375H3.23438V8.85938ZM8.85938 11.6719V11.25H0.421875V11.6719V12.0938H8.85938V11.6719ZM10.2656 1.54688L10.0021 1.87631L10.6957 2.43119L10.9592 2.10176L11.2228 1.77233L10.5292 1.21744L10.2656 1.54688ZM10.9592 2.10176L10.6957 2.43117C10.7769 2.49618 10.8048 2.51868 10.8292 2.54058L11.1108 2.2264L11.3923 1.91223C11.3462 1.87091 11.2966 1.83139 11.2228 1.77236L10.9592 2.10176ZM11.1108 2.2264L10.8292 2.54052C11.0786 2.76415 11.2292 3.07753 11.248 3.41194L11.6692 3.3883L12.0904 3.36465C12.0592 2.80719 11.8081 2.28493 11.3924 1.91228L11.1108 2.2264ZM11.6692 3.3883L11.248 3.41185C11.2498 3.4446 11.25 3.48043 11.25 3.5845H11.6719H12.0938C12.0938 3.49 12.0939 3.42655 12.0904 3.36474L11.6692 3.3883ZM11.6719 3.5845H11.25V9.70312H11.6719H12.0938V3.5845H11.6719ZM11.6719 9.70312H11.25C11.25 9.9361 11.0611 10.125 10.8281 10.125V10.5469V10.9688C11.5271 10.9688 12.0938 10.4021 12.0938 9.70312H11.6719ZM10.8281 10.5469V10.125C10.5951 10.125 10.4062 9.9361 10.4062 9.70312H9.98438H9.5625C9.5625 10.4021 10.1292 10.9688 10.8281 10.9688V10.5469ZM9.98438 9.70312H10.4062V9.66296H9.98438H9.5625V9.70312H9.98438ZM9.98438 9.66296H10.4062C10.4062 8.98616 9.85759 8.4375 9.18079 8.4375V8.85938V9.28125C9.3916 9.28125 9.5625 9.45215 9.5625 9.66296H9.98438ZM9.18079 8.85938V8.4375H8.29688V8.85938V9.28125H9.18079V8.85938ZM11.6719 3.79688V3.375H10.8281V3.79688V4.21875H11.6719V3.79688ZM10.8281 3.79688V3.375C10.1292 3.375 9.5625 3.94163 9.5625 4.64062H9.98438H10.4062C10.4062 4.40763 10.5951 4.21875 10.8281 4.21875V3.79688ZM9.98438 4.64062H9.5625V6.00126H9.98438H10.4062V4.64062H9.98438ZM9.98438 6.00126H9.5625C9.5625 6.546 9.91107 7.02963 10.4279 7.20192L10.5613 6.80169L10.6947 6.40147C10.5224 6.34403 10.4062 6.18281 10.4062 6.00126H9.98438ZM10.5613 6.80169L10.4279 7.20192L11.5385 7.5721L11.6719 7.17188L11.8053 6.77165L10.6947 6.40147L10.5613 6.80169Z" fill="#888888"/>
</svg>
