<svg width="35" height="35" viewBox="0 0 35 35" fill="none" xmlns="http://www.w3.org/2000/svg">
<rect width="35" height="35" rx="8" fill="#34A853" fill-opacity="0.1"/>
<path d="M15.6602 11.2339L16.2687 12.3242C16.8178 13.3081 16.5974 14.5987 15.7325 15.4636C15.7325 15.4636 14.6836 16.5126 16.5855 18.4146C18.4867 20.3158 19.5364 19.2675 19.5364 19.2675C20.4013 18.4026 21.6919 18.1822 22.6758 18.7313L23.7661 19.3398C25.2518 20.1689 25.4272 22.2524 24.1214 23.5583C23.3367 24.343 22.3754 24.9536 21.3127 24.9938C19.5239 25.0617 16.4859 24.609 13.4385 21.5616C10.3911 18.5141 9.93832 15.4762 10.0061 13.6873C10.0464 12.6246 10.657 11.6633 11.4417 10.8787C12.7476 9.57276 14.8311 9.74822 15.6602 11.2339Z" stroke="#37A755" stroke-width="1.4" stroke-linecap="round"/>
</svg>
