<svg width="25" height="25" viewBox="0 0 25 25" fill="none" xmlns="http://www.w3.org/2000/svg">
<path d="M17.6 15.5769H15.9M15.9 15.5769H14.2M15.9 15.5769V13.9359M15.9 15.5769V17.2179M8.25 5.73077V4.5M16.75 5.73077V4.5M4 9.83333H21M4 12.2949C4 9.20052 4 7.65335 4.99583 6.69206C5.99168 5.73077 7.59445 5.73077 10.8 5.73077H14.2C17.4055 5.73077 19.0084 5.73077 20.0041 6.69206C21 7.65335 21 9.20052 21 12.2949V13.9359C21 17.0302 21 18.5775 20.0041 19.5387C19.0084 20.5 17.4055 20.5 14.2 20.5H10.8C7.59445 20.5 5.99168 20.5 4.99583 19.5387C4 18.5775 4 17.0302 4 13.9359V12.2949Z" stroke="black" stroke-opacity="0.6" stroke-width="1.1" stroke-linecap="round"/>
</svg>
