<svg width="13" height="13" viewBox="0 0 13 13" fill="none" xmlns="http://www.w3.org/2000/svg">
<path d="M2.25 1.54688C2.25 1.15855 1.9352 0.84375 1.54688 0.84375C1.15855 0.84375 0.84375 1.15855 0.84375 1.54688C0.84375 1.9352 1.15855 2.25 1.54688 2.25C1.9352 2.25 2.25 1.9352 2.25 1.54688ZM3.09375 1.54688C3.09375 2.40119 2.40119 3.09375 1.54688 3.09375C0.692559 3.09375 0 2.40119 0 1.54688C0 0.692559 0.692559 0 1.54688 0C2.40119 0 3.09375 0.692559 3.09375 1.54688Z" fill="#888888"/>
<path d="M2.25 10.5469C2.25 10.1585 1.9352 9.84375 1.54688 9.84375C1.15855 9.84375 0.84375 10.1585 0.84375 10.5469C0.84375 10.9352 1.15855 11.25 1.54688 11.25C1.9352 11.25 2.25 10.9352 2.25 10.5469ZM3.09375 10.5469C3.09375 11.4012 2.40119 12.0938 1.54688 12.0938C0.692563 12.0938 0 11.4012 0 10.5469C0 9.69254 0.692563 9 1.54688 9C2.40119 9 3.09375 9.69254 3.09375 10.5469Z" fill="#888888"/>
<path d="M6.75 10.5469C6.75 10.1585 6.43522 9.84375 6.04688 9.84375C5.65853 9.84375 5.34375 10.1585 5.34375 10.5469C5.34375 10.9352 5.65853 11.25 6.04688 11.25C6.43522 11.25 6.75 10.9352 6.75 10.5469ZM7.59375 10.5469C7.59375 11.4012 6.90121 12.0938 6.04688 12.0938C5.19254 12.0938 4.5 11.4012 4.5 10.5469C4.5 9.69254 5.19254 9 6.04688 9C6.90121 9 7.59375 9.69254 7.59375 10.5469Z" fill="#888888"/>
<path d="M6.75 1.54688C6.75 1.15855 6.43521 0.84375 6.04688 0.84375C5.65854 0.84375 5.34375 1.15855 5.34375 1.54688C5.34375 1.9352 5.65854 2.25 6.04688 2.25C6.43521 2.25 6.75 1.9352 6.75 1.54688ZM7.59375 1.54688C7.59375 2.40119 6.90121 3.09375 6.04688 3.09375C5.19254 3.09375 4.5 2.40119 4.5 1.54688C4.5 0.692563 5.19254 0 6.04688 0C6.90121 0 7.59375 0.692563 7.59375 1.54688Z" fill="#888888"/>
<path d="M11.25 1.54688C11.25 1.15855 10.9352 0.84375 10.5469 0.84375C10.1585 0.84375 9.84375 1.15855 9.84375 1.54688C9.84375 1.9352 10.1585 2.25 10.5469 2.25C10.9352 2.25 11.25 1.9352 11.25 1.54688ZM12.0938 1.54688C12.0938 2.40119 11.4012 3.09375 10.5469 3.09375C9.69254 3.09375 9 2.40119 9 1.54688C9 0.692563 9.69254 0 10.5469 0C11.4012 0 12.0938 0.692563 12.0938 1.54688Z" fill="#888888"/>
<path d="M1.96875 2.67188C1.96875 2.43888 1.77987 2.25 1.54688 2.25C1.31388 2.25 1.125 2.43888 1.125 2.67188H1.96875ZM1.125 9.42188C1.125 9.65486 1.31388 9.84375 1.54688 9.84375C1.77987 9.84375 1.96875 9.65486 1.96875 9.42188H1.125ZM6.46875 2.67188C6.46875 2.43888 6.27986 2.25 6.04688 2.25C5.81389 2.25 5.625 2.43888 5.625 2.67188H6.46875ZM5.625 9.42188C5.625 9.65486 5.81389 9.84375 6.04688 9.84375C6.27986 9.84375 6.46875 9.65486 6.46875 9.42188H5.625ZM10.9688 2.67188C10.9688 2.43888 10.7799 2.25 10.5469 2.25C10.3139 2.25 10.125 2.43888 10.125 2.67188H10.9688ZM1.54688 5.625C1.31388 5.625 1.125 5.81389 1.125 6.04688C1.125 6.27986 1.31388 6.46875 1.54688 6.46875V5.625ZM1.125 2.67188V9.42188H1.96875V2.67188H1.125ZM5.625 2.67188V9.42188H6.46875V2.67188H5.625ZM10.125 2.67188V3.79688H10.9688V2.67188H10.125ZM8.29688 5.625H1.54688V6.46875H8.29688V5.625ZM10.125 3.79688C10.125 4.33913 10.1241 4.70338 10.0876 4.97509C10.0527 5.23468 9.99236 5.34577 9.91907 5.41907L10.5157 6.01566C10.7719 5.75949 10.8763 5.44067 10.9238 5.08753C10.9696 4.74652 10.9688 4.31528 10.9688 3.79688H10.125ZM8.29688 6.46875C8.81528 6.46875 9.24654 6.46965 9.58753 6.42381C9.94067 6.37633 10.2595 6.27187 10.5157 6.01566L9.91907 5.41907C9.84577 5.49236 9.73468 5.55266 9.47509 5.58759C9.2034 5.6241 8.83912 5.625 8.29688 5.625V6.46875Z" fill="#888888"/>
</svg>
