<svg width="160" height="160" viewBox="0 0 160 160" fill="none" xmlns="http://www.w3.org/2000/svg">
<rect x="0.125" y="0.125" width="159.75" height="159.75" rx="79.875" fill="#37A755"/>
<path d="M112.863 80.0001C112.863 88.7159 109.4 97.0747 103.237 103.238C97.0744 109.401 88.7157 112.863 79.9999 112.863C71.2841 112.863 62.9254 109.401 56.7624 103.238C50.5994 97.0747 47.1371 88.7159 47.1371 80.0001C47.1371 71.2844 50.5994 62.9256 56.7624 56.7626C62.9254 50.5997 71.2841 47.1373 79.9999 47.1373C83.1219 47.1373 86.1617 47.5892 89.0372 48.4108L95.4865 41.9614C90.5754 39.9363 85.3121 38.9032 79.9999 38.9216C74.6054 38.9216 69.2637 39.9842 64.2798 42.0485C59.296 44.1129 54.7675 47.1388 50.953 50.9532C43.2493 58.657 38.9214 69.1054 38.9214 80.0001C38.9214 90.8948 43.2493 101.343 50.953 109.047C54.7675 112.862 59.296 115.887 64.2798 117.952C69.2637 120.016 74.6054 121.079 79.9999 121.079C90.8946 121.079 101.343 116.751 109.047 109.047C116.751 101.343 121.078 90.8948 121.078 80.0001M63.1988 72.1131L57.4067 77.9462L75.892 96.4315L116.971 55.353L111.178 49.5199L75.892 84.8063L63.1988 72.1131Z" fill="white"/>
</svg>
